# RF2 box9_world: generated by scripts/mapkit/weapon_models.py. Centimetres, Y up.
o box9_world
usemtl weapons_palette.png
v -10.0000 0.0000 -7.0000
v -10.0000 0.0000 7.0000
v 10.0000 0.0000 7.0000
v -10.0000 0.0000 -7.0000
v 10.0000 0.0000 7.0000
v 10.0000 0.0000 -7.0000
v -10.0000 7.0000 -7.0000
v 10.0000 7.0000 -7.0000
v 10.0000 7.0000 7.0000
v -10.0000 7.0000 -7.0000
v 10.0000 7.0000 7.0000
v -10.0000 7.0000 7.0000
v -10.0000 0.0000 -7.0000
v 10.0000 0.0000 -7.0000
v 10.0000 7.0000 -7.0000
v -10.0000 0.0000 -7.0000
v 10.0000 7.0000 -7.0000
v -10.0000 7.0000 -7.0000
v 10.0000 0.0000 -7.0000
v 10.0000 0.0000 7.0000
v 10.0000 7.0000 7.0000
v 10.0000 0.0000 -7.0000
v 10.0000 7.0000 7.0000
v 10.0000 7.0000 -7.0000
v 10.0000 0.0000 7.0000
v -10.0000 0.0000 7.0000
v -10.0000 7.0000 7.0000
v 10.0000 0.0000 7.0000
v -10.0000 7.0000 7.0000
v 10.0000 7.0000 7.0000
v -10.0000 0.0000 7.0000
v -10.0000 0.0000 -7.0000
v -10.0000 7.0000 -7.0000
v -10.0000 0.0000 7.0000
v -10.0000 7.0000 -7.0000
v -10.0000 7.0000 7.0000
v -10.4000 7.0000 -7.4000
v -10.4000 7.0000 7.4000
v 10.4000 7.0000 7.4000
v -10.4000 7.0000 -7.4000
v 10.4000 7.0000 7.4000
v 10.4000 7.0000 -7.4000
v -10.4000 8.0000 -7.4000
v 10.4000 8.0000 -7.4000
v 10.4000 8.0000 7.4000
v -10.4000 8.0000 -7.4000
v 10.4000 8.0000 7.4000
v -10.4000 8.0000 7.4000
v -10.4000 7.0000 -7.4000
v 10.4000 7.0000 -7.4000
v 10.4000 8.0000 -7.4000
v -10.4000 7.0000 -7.4000
v 10.4000 8.0000 -7.4000
v -10.4000 8.0000 -7.4000
v 10.4000 7.0000 -7.4000
v 10.4000 7.0000 7.4000
v 10.4000 8.0000 7.4000
v 10.4000 7.0000 -7.4000
v 10.4000 8.0000 7.4000
v 10.4000 8.0000 -7.4000
v 10.4000 7.0000 7.4000
v -10.4000 7.0000 7.4000
v -10.4000 8.0000 7.4000
v 10.4000 7.0000 7.4000
v -10.4000 8.0000 7.4000
v 10.4000 8.0000 7.4000
v -10.4000 7.0000 7.4000
v -10.4000 7.0000 -7.4000
v -10.4000 8.0000 -7.4000
v -10.4000 7.0000 7.4000
v -10.4000 8.0000 -7.4000
v -10.4000 8.0000 7.4000
v -4.0000 7.9000 -4.0000
v -4.0000 7.9000 4.0000
v 4.0000 7.9000 4.0000
v -4.0000 7.9000 -4.0000
v 4.0000 7.9000 4.0000
v 4.0000 7.9000 -4.0000
v -4.0000 8.1000 -4.0000
v 4.0000 8.1000 -4.0000
v 4.0000 8.1000 4.0000
v -4.0000 8.1000 -4.0000
v 4.0000 8.1000 4.0000
v -4.0000 8.1000 4.0000
v -4.0000 7.9000 -4.0000
v 4.0000 7.9000 -4.0000
v 4.0000 8.1000 -4.0000
v -4.0000 7.9000 -4.0000
v 4.0000 8.1000 -4.0000
v -4.0000 8.1000 -4.0000
v 4.0000 7.9000 -4.0000
v 4.0000 7.9000 4.0000
v 4.0000 8.1000 4.0000
v 4.0000 7.9000 -4.0000
v 4.0000 8.1000 4.0000
v 4.0000 8.1000 -4.0000
v 4.0000 7.9000 4.0000
v -4.0000 7.9000 4.0000
v -4.0000 8.1000 4.0000
v 4.0000 7.9000 4.0000
v -4.0000 8.1000 4.0000
v 4.0000 8.1000 4.0000
v -4.0000 7.9000 4.0000
v -4.0000 7.9000 -4.0000
v -4.0000 8.1000 -4.0000
v -4.0000 7.9000 4.0000
v -4.0000 8.1000 -4.0000
v -4.0000 8.1000 4.0000
v 12.0000 2.0000 0.0000
v 12.0000 1.7071 0.7071
v 16.0000 1.7071 0.7071
v 12.0000 2.0000 0.0000
v 16.0000 1.7071 0.7071
v 16.0000 2.0000 0.0000
v 12.0000 1.7071 0.7071
v 12.0000 1.0000 1.0000
v 16.0000 1.0000 1.0000
v 12.0000 1.7071 0.7071
v 16.0000 1.0000 1.0000
v 16.0000 1.7071 0.7071
v 12.0000 1.0000 1.0000
v 12.0000 0.2929 0.7071
v 16.0000 0.2929 0.7071
v 12.0000 1.0000 1.0000
v 16.0000 0.2929 0.7071
v 16.0000 1.0000 1.0000
v 12.0000 0.2929 0.7071
v 12.0000 0.0000 0.0000
v 16.0000 0.0000 0.0000
v 12.0000 0.2929 0.7071
v 16.0000 0.0000 0.0000
v 16.0000 0.2929 0.7071
v 12.0000 0.0000 0.0000
v 12.0000 0.2929 -0.7071
v 16.0000 0.2929 -0.7071
v 12.0000 0.0000 0.0000
v 16.0000 0.2929 -0.7071
v 16.0000 0.0000 0.0000
v 12.0000 0.2929 -0.7071
v 12.0000 1.0000 -1.0000
v 16.0000 1.0000 -1.0000
v 12.0000 0.2929 -0.7071
v 16.0000 1.0000 -1.0000
v 16.0000 0.2929 -0.7071
v 12.0000 1.0000 -1.0000
v 12.0000 1.7071 -0.7071
v 16.0000 1.7071 -0.7071
v 12.0000 1.0000 -1.0000
v 16.0000 1.7071 -0.7071
v 16.0000 1.0000 -1.0000
v 12.0000 1.7071 -0.7071
v 12.0000 2.0000 0.0000
v 16.0000 2.0000 0.0000
v 12.0000 1.7071 -0.7071
v 16.0000 2.0000 0.0000
v 16.0000 1.7071 -0.7071
v 16.0000 2.0000 0.0000
v 16.0000 1.7071 0.7071
v 16.0000 1.0000 1.0000
v 12.0000 2.0000 0.0000
v 12.0000 1.0000 1.0000
v 12.0000 1.7071 0.7071
v 16.0000 2.0000 0.0000
v 16.0000 1.0000 1.0000
v 16.0000 0.2929 0.7071
v 12.0000 2.0000 0.0000
v 12.0000 0.2929 0.7071
v 12.0000 1.0000 1.0000
v 16.0000 2.0000 0.0000
v 16.0000 0.2929 0.7071
v 16.0000 0.0000 0.0000
v 12.0000 2.0000 0.0000
v 12.0000 0.0000 0.0000
v 12.0000 0.2929 0.7071
v 16.0000 2.0000 0.0000
v 16.0000 0.0000 0.0000
v 16.0000 0.2929 -0.7071
v 12.0000 2.0000 0.0000
v 12.0000 0.2929 -0.7071
v 12.0000 0.0000 0.0000
v 16.0000 2.0000 0.0000
v 16.0000 0.2929 -0.7071
v 16.0000 1.0000 -1.0000
v 12.0000 2.0000 0.0000
v 12.0000 1.0000 -1.0000
v 12.0000 0.2929 -0.7071
v 16.0000 2.0000 0.0000
v 16.0000 1.0000 -1.0000
v 16.0000 1.7071 -0.7071
v 12.0000 2.0000 0.0000
v 12.0000 1.7071 -0.7071
v 12.0000 1.0000 -1.0000
vt 0.6250 0.6250
vt 0.8750 0.6250
vt 0.3750 0.1250
vt 0.8750 0.3750
vn 0.0000 1.0000 0.0000
vn 0.0000 1.0000 0.0000
vn 0.0000 -1.0000 0.0000
vn 0.0000 -1.0000 0.0000
vn 0.0000 0.0000 1.0000
vn 0.0000 0.0000 1.0000
vn -1.0000 0.0000 0.0000
vn -1.0000 0.0000 0.0000
vn 0.0000 0.0000 -1.0000
vn 0.0000 0.0000 -1.0000
vn 1.0000 0.0000 0.0000
vn 1.0000 -0.0000 0.0000
vn 0.0000 1.0000 0.0000
vn 0.0000 1.0000 0.0000
vn 0.0000 -1.0000 0.0000
vn 0.0000 -1.0000 0.0000
vn 0.0000 0.0000 1.0000
vn 0.0000 0.0000 1.0000
vn -1.0000 0.0000 0.0000
vn -1.0000 0.0000 0.0000
vn 0.0000 0.0000 -1.0000
vn 0.0000 0.0000 -1.0000
vn 1.0000 0.0000 0.0000
vn 1.0000 -0.0000 0.0000
vn 0.0000 1.0000 0.0000
vn 0.0000 1.0000 0.0000
vn 0.0000 -1.0000 0.0000
vn 0.0000 -1.0000 0.0000
vn 0.0000 0.0000 1.0000
vn 0.0000 0.0000 1.0000
vn -1.0000 0.0000 0.0000
vn -1.0000 0.0000 0.0000
vn 0.0000 0.0000 -1.0000
vn 0.0000 0.0000 -1.0000
vn 1.0000 0.0000 0.0000
vn 1.0000 -0.0000 0.0000
vn 0.0000 0.9239 0.3827
vn -0.0000 0.9239 0.3827
vn 0.0000 0.3827 0.9239
vn -0.0000 0.3827 0.9239
vn 0.0000 -0.3827 0.9239
vn 0.0000 -0.3827 0.9239
vn 0.0000 -0.9239 0.3827
vn 0.0000 -0.9239 0.3827
vn 0.0000 -0.9239 -0.3827
vn 0.0000 -0.9239 -0.3827
vn 0.0000 -0.3827 -0.9239
vn 0.0000 -0.3827 -0.9239
vn 0.0000 0.3827 -0.9239
vn 0.0000 0.3827 -0.9239
vn 0.0000 0.9239 -0.3827
vn 0.0000 0.9239 -0.3827
vn 1.0000 0.0000 0.0000
vn -1.0000 0.0000 0.0000
vn 1.0000 0.0000 0.0000
vn -1.0000 0.0000 0.0000
vn 1.0000 0.0000 0.0000
vn -1.0000 0.0000 0.0000
vn 1.0000 0.0000 0.0000
vn -1.0000 -0.0000 0.0000
vn 1.0000 0.0000 0.0000
vn -1.0000 0.0000 0.0000
vn 1.0000 0.0000 0.0000
vn -1.0000 0.0000 0.0000
f 1/1/1 2/1/1 3/1/1
f 4/1/2 5/1/2 6/1/2
f 7/1/3 8/1/3 9/1/3
f 10/1/4 11/1/4 12/1/4
f 13/1/5 14/1/5 15/1/5
f 16/1/6 17/1/6 18/1/6
f 19/1/7 20/1/7 21/1/7
f 22/1/8 23/1/8 24/1/8
f 25/1/9 26/1/9 27/1/9
f 28/1/10 29/1/10 30/1/10
f 31/1/11 32/1/11 33/1/11
f 34/1/12 35/1/12 36/1/12
f 37/2/13 38/2/13 39/2/13
f 40/2/14 41/2/14 42/2/14
f 43/2/15 44/2/15 45/2/15
f 46/2/16 47/2/16 48/2/16
f 49/2/17 50/2/17 51/2/17
f 52/2/18 53/2/18 54/2/18
f 55/2/19 56/2/19 57/2/19
f 58/2/20 59/2/20 60/2/20
f 61/2/21 62/2/21 63/2/21
f 64/2/22 65/2/22 66/2/22
f 67/2/23 68/2/23 69/2/23
f 70/2/24 71/2/24 72/2/24
f 73/3/25 74/3/25 75/3/25
f 76/3/26 77/3/26 78/3/26
f 79/3/27 80/3/27 81/3/27
f 82/3/28 83/3/28 84/3/28
f 85/3/29 86/3/29 87/3/29
f 88/3/30 89/3/30 90/3/30
f 91/3/31 92/3/31 93/3/31
f 94/3/32 95/3/32 96/3/32
f 97/3/33 98/3/33 99/3/33
f 100/3/34 101/3/34 102/3/34
f 103/3/35 104/3/35 105/3/35
f 106/3/36 107/3/36 108/3/36
f 109/4/37 110/4/37 111/4/37
f 112/4/38 113/4/38 114/4/38
f 115/4/39 116/4/39 117/4/39
f 118/4/40 119/4/40 120/4/40
f 121/4/41 122/4/41 123/4/41
f 124/4/42 125/4/42 126/4/42
f 127/4/43 128/4/43 129/4/43
f 130/4/44 131/4/44 132/4/44
f 133/4/45 134/4/45 135/4/45
f 136/4/46 137/4/46 138/4/46
f 139/4/47 140/4/47 141/4/47
f 142/4/48 143/4/48 144/4/48
f 145/4/49 146/4/49 147/4/49
f 148/4/50 149/4/50 150/4/50
f 151/4/51 152/4/51 153/4/51
f 154/4/52 155/4/52 156/4/52
f 157/4/53 158/4/53 159/4/53
f 160/4/54 161/4/54 162/4/54
f 163/4/55 164/4/55 165/4/55
f 166/4/56 167/4/56 168/4/56
f 169/4/57 170/4/57 171/4/57
f 172/4/58 173/4/58 174/4/58
f 175/4/59 176/4/59 177/4/59
f 178/4/60 179/4/60 180/4/60
f 181/4/61 182/4/61 183/4/61
f 184/4/62 185/4/62 186/4/62
f 187/4/63 188/4/63 189/4/63
f 190/4/64 191/4/64 192/4/64
