# RF2 browning_world: generated by scripts/mapkit/weapon_models.py. Centimetres, Y up.
o browning_world
usemtl weapons_palette.png
v -10.0000 0.2000 -3.0000
v -10.0000 3.0000 -3.0000
v 10.0000 3.0000 -3.0000
v -10.0000 0.2000 -3.0000
v 10.0000 3.0000 -3.0000
v 10.0000 0.2000 -3.0000
v -10.0000 0.2000 -6.2000
v 10.0000 0.2000 -6.2000
v 10.0000 3.0000 -6.2000
v -10.0000 0.2000 -6.2000
v 10.0000 3.0000 -6.2000
v -10.0000 3.0000 -6.2000
v -10.0000 0.2000 -3.0000
v 10.0000 0.2000 -3.0000
v 10.0000 0.2000 -6.2000
v -10.0000 0.2000 -3.0000
v 10.0000 0.2000 -6.2000
v -10.0000 0.2000 -6.2000
v 10.0000 0.2000 -3.0000
v 10.0000 3.0000 -3.0000
v 10.0000 3.0000 -6.2000
v 10.0000 0.2000 -3.0000
v 10.0000 3.0000 -6.2000
v 10.0000 0.2000 -6.2000
v 10.0000 3.0000 -3.0000
v -10.0000 3.0000 -3.0000
v -10.0000 3.0000 -6.2000
v 10.0000 3.0000 -3.0000
v -10.0000 3.0000 -6.2000
v 10.0000 3.0000 -6.2000
v -10.0000 3.0000 -3.0000
v -10.0000 0.2000 -3.0000
v -10.0000 0.2000 -6.2000
v -10.0000 3.0000 -3.0000
v -10.0000 0.2000 -6.2000
v -10.0000 3.0000 -6.2000
v -9.0000 3.0000 -3.4000
v -9.0000 3.1000 -3.4000
v -8.5000 3.1000 -3.4000
v -9.0000 3.0000 -3.4000
v -8.5000 3.1000 -3.4000
v -8.5000 3.0000 -3.4000
v -9.0000 3.0000 -6.0000
v -8.5000 3.0000 -6.0000
v -8.5000 3.1000 -6.0000
v -9.0000 3.0000 -6.0000
v -8.5000 3.1000 -6.0000
v -9.0000 3.1000 -6.0000
v -9.0000 3.0000 -3.4000
v -8.5000 3.0000 -3.4000
v -8.5000 3.0000 -6.0000
v -9.0000 3.0000 -3.4000
v -8.5000 3.0000 -6.0000
v -9.0000 3.0000 -6.0000
v -8.5000 3.0000 -3.4000
v -8.5000 3.1000 -3.4000
v -8.5000 3.1000 -6.0000
v -8.5000 3.0000 -3.4000
v -8.5000 3.1000 -6.0000
v -8.5000 3.0000 -6.0000
v -8.5000 3.1000 -3.4000
v -9.0000 3.1000 -3.4000
v -9.0000 3.1000 -6.0000
v -8.5000 3.1000 -3.4000
v -9.0000 3.1000 -6.0000
v -8.5000 3.1000 -6.0000
v -9.0000 3.1000 -3.4000
v -9.0000 3.0000 -3.4000
v -9.0000 3.0000 -6.0000
v -9.0000 3.1000 -3.4000
v -9.0000 3.0000 -6.0000
v -9.0000 3.1000 -6.0000
v -8.0000 3.0000 -3.4000
v -8.0000 3.1000 -3.4000
v -7.5000 3.1000 -3.4000
v -8.0000 3.0000 -3.4000
v -7.5000 3.1000 -3.4000
v -7.5000 3.0000 -3.4000
v -8.0000 3.0000 -6.0000
v -7.5000 3.0000 -6.0000
v -7.5000 3.1000 -6.0000
v -8.0000 3.0000 -6.0000
v -7.5000 3.1000 -6.0000
v -8.0000 3.1000 -6.0000
v -8.0000 3.0000 -3.4000
v -7.5000 3.0000 -3.4000
v -7.5000 3.0000 -6.0000
v -8.0000 3.0000 -3.4000
v -7.5000 3.0000 -6.0000
v -8.0000 3.0000 -6.0000
v -7.5000 3.0000 -3.4000
v -7.5000 3.1000 -3.4000
v -7.5000 3.1000 -6.0000
v -7.5000 3.0000 -3.4000
v -7.5000 3.1000 -6.0000
v -7.5000 3.0000 -6.0000
v -7.5000 3.1000 -3.4000
v -8.0000 3.1000 -3.4000
v -8.0000 3.1000 -6.0000
v -7.5000 3.1000 -3.4000
v -8.0000 3.1000 -6.0000
v -7.5000 3.1000 -6.0000
v -8.0000 3.1000 -3.4000
v -8.0000 3.0000 -3.4000
v -8.0000 3.0000 -6.0000
v -8.0000 3.1000 -3.4000
v -8.0000 3.0000 -6.0000
v -8.0000 3.1000 -6.0000
v -7.0000 3.0000 -3.4000
v -7.0000 3.1000 -3.4000
v -6.5000 3.1000 -3.4000
v -7.0000 3.0000 -3.4000
v -6.5000 3.1000 -3.4000
v -6.5000 3.0000 -3.4000
v -7.0000 3.0000 -6.0000
v -6.5000 3.0000 -6.0000
v -6.5000 3.1000 -6.0000
v -7.0000 3.0000 -6.0000
v -6.5000 3.1000 -6.0000
v -7.0000 3.1000 -6.0000
v -7.0000 3.0000 -3.4000
v -6.5000 3.0000 -3.4000
v -6.5000 3.0000 -6.0000
v -7.0000 3.0000 -3.4000
v -6.5000 3.0000 -6.0000
v -7.0000 3.0000 -6.0000
v -6.5000 3.0000 -3.4000
v -6.5000 3.1000 -3.4000
v -6.5000 3.1000 -6.0000
v -6.5000 3.0000 -3.4000
v -6.5000 3.1000 -6.0000
v -6.5000 3.0000 -6.0000
v -6.5000 3.1000 -3.4000
v -7.0000 3.1000 -3.4000
v -7.0000 3.1000 -6.0000
v -6.5000 3.1000 -3.4000
v -7.0000 3.1000 -6.0000
v -6.5000 3.1000 -6.0000
v -7.0000 3.1000 -3.4000
v -7.0000 3.0000 -3.4000
v -7.0000 3.0000 -6.0000
v -7.0000 3.1000 -3.4000
v -7.0000 3.0000 -6.0000
v -7.0000 3.1000 -6.0000
v -6.0000 3.0000 -3.4000
v -6.0000 3.1000 -3.4000
v -5.5000 3.1000 -3.4000
v -6.0000 3.0000 -3.4000
v -5.5000 3.1000 -3.4000
v -5.5000 3.0000 -3.4000
v -6.0000 3.0000 -6.0000
v -5.5000 3.0000 -6.0000
v -5.5000 3.1000 -6.0000
v -6.0000 3.0000 -6.0000
v -5.5000 3.1000 -6.0000
v -6.0000 3.1000 -6.0000
v -6.0000 3.0000 -3.4000
v -5.5000 3.0000 -3.4000
v -5.5000 3.0000 -6.0000
v -6.0000 3.0000 -3.4000
v -5.5000 3.0000 -6.0000
v -6.0000 3.0000 -6.0000
v -5.5000 3.0000 -3.4000
v -5.5000 3.1000 -3.4000
v -5.5000 3.1000 -6.0000
v -5.5000 3.0000 -3.4000
v -5.5000 3.1000 -6.0000
v -5.5000 3.0000 -6.0000
v -5.5000 3.1000 -3.4000
v -6.0000 3.1000 -3.4000
v -6.0000 3.1000 -6.0000
v -5.5000 3.1000 -3.4000
v -6.0000 3.1000 -6.0000
v -5.5000 3.1000 -6.0000
v -6.0000 3.1000 -3.4000
v -6.0000 3.0000 -3.4000
v -6.0000 3.0000 -6.0000
v -6.0000 3.1000 -3.4000
v -6.0000 3.0000 -6.0000
v -6.0000 3.1000 -6.0000
v -5.0000 3.0000 -3.4000
v -5.0000 3.1000 -3.4000
v -4.5000 3.1000 -3.4000
v -5.0000 3.0000 -3.4000
v -4.5000 3.1000 -3.4000
v -4.5000 3.0000 -3.4000
v -5.0000 3.0000 -6.0000
v -4.5000 3.0000 -6.0000
v -4.5000 3.1000 -6.0000
v -5.0000 3.0000 -6.0000
v -4.5000 3.1000 -6.0000
v -5.0000 3.1000 -6.0000
v -5.0000 3.0000 -3.4000
v -4.5000 3.0000 -3.4000
v -4.5000 3.0000 -6.0000
v -5.0000 3.0000 -3.4000
v -4.5000 3.0000 -6.0000
v -5.0000 3.0000 -6.0000
v -4.5000 3.0000 -3.4000
v -4.5000 3.1000 -3.4000
v -4.5000 3.1000 -6.0000
v -4.5000 3.0000 -3.4000
v -4.5000 3.1000 -6.0000
v -4.5000 3.0000 -6.0000
v -4.5000 3.1000 -3.4000
v -5.0000 3.1000 -3.4000
v -5.0000 3.1000 -6.0000
v -4.5000 3.1000 -3.4000
v -5.0000 3.1000 -6.0000
v -4.5000 3.1000 -6.0000
v -5.0000 3.1000 -3.4000
v -5.0000 3.0000 -3.4000
v -5.0000 3.0000 -6.0000
v -5.0000 3.1000 -3.4000
v -5.0000 3.0000 -6.0000
v -5.0000 3.1000 -6.0000
v -10.0000 0.3000 -0.0000
v -10.0000 2.9000 -0.0000
v 8.0000 2.9000 -0.0000
v -10.0000 0.3000 -0.0000
v 8.0000 2.9000 -0.0000
v 8.0000 0.3000 -0.0000
v -10.0000 0.3000 -3.0000
v 8.0000 0.3000 -3.0000
v 8.0000 2.9000 -3.0000
v -10.0000 0.3000 -3.0000
v 8.0000 2.9000 -3.0000
v -10.0000 2.9000 -3.0000
v -10.0000 0.3000 -0.0000
v 8.0000 0.3000 -0.0000
v 8.0000 0.3000 -3.0000
v -10.0000 0.3000 -0.0000
v 8.0000 0.3000 -3.0000
v -10.0000 0.3000 -3.0000
v 8.0000 0.3000 -0.0000
v 8.0000 2.9000 -0.0000
v 8.0000 2.9000 -3.0000
v 8.0000 0.3000 -0.0000
v 8.0000 2.9000 -3.0000
v 8.0000 0.3000 -3.0000
v 8.0000 2.9000 -0.0000
v -10.0000 2.9000 -0.0000
v -10.0000 2.9000 -3.0000
v 8.0000 2.9000 -0.0000
v -10.0000 2.9000 -3.0000
v 8.0000 2.9000 -3.0000
v -10.0000 2.9000 -0.0000
v -10.0000 0.3000 -0.0000
v -10.0000 0.3000 -3.0000
v -10.0000 2.9000 -0.0000
v -10.0000 0.3000 -3.0000
v -10.0000 2.9000 -3.0000
v 10.0000 1.6000 -5.2000
v 10.0000 2.0243 -5.0243
v 10.6000 2.0243 -5.0243
v 10.0000 1.6000 -5.2000
v 10.6000 2.0243 -5.0243
v 10.6000 1.6000 -5.2000
v 10.0000 2.0243 -5.0243
v 10.0000 2.2000 -4.6000
v 10.6000 2.2000 -4.6000
v 10.0000 2.0243 -5.0243
v 10.6000 2.2000 -4.6000
v 10.6000 2.0243 -5.0243
v 10.0000 2.2000 -4.6000
v 10.0000 2.0243 -4.1757
v 10.6000 2.0243 -4.1757
v 10.0000 2.2000 -4.6000
v 10.6000 2.0243 -4.1757
v 10.6000 2.2000 -4.6000
v 10.0000 2.0243 -4.1757
v 10.0000 1.6000 -4.0000
v 10.6000 1.6000 -4.0000
v 10.0000 2.0243 -4.1757
v 10.6000 1.6000 -4.0000
v 10.6000 2.0243 -4.1757
v 10.0000 1.6000 -4.0000
v 10.0000 1.1757 -4.1757
v 10.6000 1.1757 -4.1757
v 10.0000 1.6000 -4.0000
v 10.6000 1.1757 -4.1757
v 10.6000 1.6000 -4.0000
v 10.0000 1.1757 -4.1757
v 10.0000 1.0000 -4.6000
v 10.6000 1.0000 -4.6000
v 10.0000 1.1757 -4.1757
v 10.6000 1.0000 -4.6000
v 10.6000 1.1757 -4.1757
v 10.0000 1.0000 -4.6000
v 10.0000 1.1757 -5.0243
v 10.6000 1.1757 -5.0243
v 10.0000 1.0000 -4.6000
v 10.6000 1.1757 -5.0243
v 10.6000 1.0000 -4.6000
v 10.0000 1.1757 -5.0243
v 10.0000 1.6000 -5.2000
v 10.6000 1.6000 -5.2000
v 10.0000 1.1757 -5.0243
v 10.6000 1.6000 -5.2000
v 10.6000 1.1757 -5.0243
v 10.6000 1.6000 -5.2000
v 10.6000 2.0243 -5.0243
v 10.6000 2.2000 -4.6000
v 10.0000 1.6000 -5.2000
v 10.0000 2.2000 -4.6000
v 10.0000 2.0243 -5.0243
v 10.6000 1.6000 -5.2000
v 10.6000 2.2000 -4.6000
v 10.6000 2.0243 -4.1757
v 10.0000 1.6000 -5.2000
v 10.0000 2.0243 -4.1757
v 10.0000 2.2000 -4.6000
v 10.6000 1.6000 -5.2000
v 10.6000 2.0243 -4.1757
v 10.6000 1.6000 -4.0000
v 10.0000 1.6000 -5.2000
v 10.0000 1.6000 -4.0000
v 10.0000 2.0243 -4.1757
v 10.6000 1.6000 -5.2000
v 10.6000 1.6000 -4.0000
v 10.6000 1.1757 -4.1757
v 10.0000 1.6000 -5.2000
v 10.0000 1.1757 -4.1757
v 10.0000 1.6000 -4.0000
v 10.6000 1.6000 -5.2000
v 10.6000 1.1757 -4.1757
v 10.6000 1.0000 -4.6000
v 10.0000 1.6000 -5.2000
v 10.0000 1.0000 -4.6000
v 10.0000 1.1757 -4.1757
v 10.6000 1.6000 -5.2000
v 10.6000 1.0000 -4.6000
v 10.6000 1.1757 -5.0243
v 10.0000 1.6000 -5.2000
v 10.0000 1.1757 -5.0243
v 10.0000 1.0000 -4.6000
v -12.3000 0.0000 11.0000
v -12.3000 3.2000 11.0000
v -6.3000 3.2000 11.0000
v -12.3000 0.0000 11.0000
v -6.3000 3.2000 11.0000
v -6.3000 0.0000 11.0000
v -9.0000 0.0000 0.0000
v -3.0000 0.0000 0.0000
v -3.0000 3.2000 0.0000
v -9.0000 0.0000 0.0000
v -3.0000 3.2000 0.0000
v -9.0000 3.2000 0.0000
v -12.3000 0.0000 11.0000
v -6.3000 0.0000 11.0000
v -3.0000 0.0000 0.0000
v -12.3000 0.0000 11.0000
v -3.0000 0.0000 0.0000
v -9.0000 0.0000 0.0000
v -6.3000 0.0000 11.0000
v -6.3000 3.2000 11.0000
v -3.0000 3.2000 0.0000
v -6.3000 0.0000 11.0000
v -3.0000 3.2000 0.0000
v -3.0000 0.0000 0.0000
v -6.3000 3.2000 11.0000
v -12.3000 3.2000 11.0000
v -9.0000 3.2000 0.0000
v -6.3000 3.2000 11.0000
v -9.0000 3.2000 0.0000
v -3.0000 3.2000 0.0000
v -12.3000 3.2000 11.0000
v -12.3000 0.0000 11.0000
v -9.0000 0.0000 0.0000
v -12.3000 3.2000 11.0000
v -9.0000 0.0000 0.0000
v -9.0000 3.2000 0.0000
v -4.0000 1.1500 2.8000
v -4.0000 2.0500 2.8000
v 3.0000 2.0500 2.8000
v -4.0000 1.1500 2.8000
v 3.0000 2.0500 2.8000
v 3.0000 1.1500 2.8000
v -4.0000 1.1500 2.2000
v 3.0000 1.1500 2.2000
v 3.0000 2.0500 2.2000
v -4.0000 1.1500 2.2000
v 3.0000 2.0500 2.2000
v -4.0000 2.0500 2.2000
v -4.0000 1.1500 2.8000
v 3.0000 1.1500 2.8000
v 3.0000 1.1500 2.2000
v -4.0000 1.1500 2.8000
v 3.0000 1.1500 2.2000
v -4.0000 1.1500 2.2000
v 3.0000 1.1500 2.8000
v 3.0000 2.0500 2.8000
v 3.0000 2.0500 2.2000
v 3.0000 1.1500 2.8000
v 3.0000 2.0500 2.2000
v 3.0000 1.1500 2.2000
v 3.0000 2.0500 2.8000
v -4.0000 2.0500 2.8000
v -4.0000 2.0500 2.2000
v 3.0000 2.0500 2.8000
v -4.0000 2.0500 2.2000
v 3.0000 2.0500 2.2000
v -4.0000 2.0500 2.8000
v -4.0000 1.1500 2.8000
v -4.0000 1.1500 2.2000
v -4.0000 2.0500 2.8000
v -4.0000 1.1500 2.2000
v -4.0000 2.0500 2.2000
v 2.4000 1.1500 2.8000
v 2.4000 2.0500 2.8000
v 3.0000 2.0500 2.8000
v 2.4000 1.1500 2.8000
v 3.0000 2.0500 2.8000
v 3.0000 1.1500 2.8000
v 2.4000 1.1500 0.0000
v 3.0000 1.1500 0.0000
v 3.0000 2.0500 0.0000
v 2.4000 1.1500 0.0000
v 3.0000 2.0500 0.0000
v 2.4000 2.0500 0.0000
v 2.4000 1.1500 2.8000
v 3.0000 1.1500 2.8000
v 3.0000 1.1500 0.0000
v 2.4000 1.1500 2.8000
v 3.0000 1.1500 0.0000
v 2.4000 1.1500 0.0000
v 3.0000 1.1500 2.8000
v 3.0000 2.0500 2.8000
v 3.0000 2.0500 0.0000
v 3.0000 1.1500 2.8000
v 3.0000 2.0500 0.0000
v 3.0000 1.1500 0.0000
v 3.0000 2.0500 2.8000
v 2.4000 2.0500 2.8000
v 2.4000 2.0500 0.0000
v 3.0000 2.0500 2.8000
v 2.4000 2.0500 0.0000
v 3.0000 2.0500 0.0000
v 2.4000 2.0500 2.8000
v 2.4000 1.1500 2.8000
v 2.4000 1.1500 0.0000
v 2.4000 2.0500 2.8000
v 2.4000 1.1500 0.0000
v 2.4000 2.0500 0.0000
v -11.2000 1.1000 -5.0000
v -11.2000 2.1000 -5.0000
v -10.0000 2.1000 -5.0000
v -11.2000 1.1000 -5.0000
v -10.0000 2.1000 -5.0000
v -10.0000 1.1000 -5.0000
v -11.2000 1.1000 -6.6000
v -10.0000 1.1000 -6.6000
v -10.0000 2.1000 -6.6000
v -11.2000 1.1000 -6.6000
v -10.0000 2.1000 -6.6000
v -11.2000 2.1000 -6.6000
v -11.2000 1.1000 -5.0000
v -10.0000 1.1000 -5.0000
v -10.0000 1.1000 -6.6000
v -11.2000 1.1000 -5.0000
v -10.0000 1.1000 -6.6000
v -11.2000 1.1000 -6.6000
v -10.0000 1.1000 -5.0000
v -10.0000 2.1000 -5.0000
v -10.0000 2.1000 -6.6000
v -10.0000 1.1000 -5.0000
v -10.0000 2.1000 -6.6000
v -10.0000 1.1000 -6.6000
v -10.0000 2.1000 -5.0000
v -11.2000 2.1000 -5.0000
v -11.2000 2.1000 -6.6000
v -10.0000 2.1000 -5.0000
v -11.2000 2.1000 -6.6000
v -10.0000 2.1000 -6.6000
v -11.2000 2.1000 -5.0000
v -11.2000 1.1000 -5.0000
v -11.2000 1.1000 -6.6000
v -11.2000 2.1000 -5.0000
v -11.2000 1.1000 -6.6000
v -11.2000 2.1000 -6.6000
vt 0.1250 0.8750
vt 0.8750 0.8750
vt 0.3750 0.8750
vt 0.3750 0.6250
vn 0.0000 0.0000 -1.0000
vn 0.0000 0.0000 -1.0000
vn 0.0000 0.0000 1.0000
vn 0.0000 0.0000 1.0000
vn 0.0000 1.0000 -0.0000
vn 0.0000 1.0000 -0.0000
vn -1.0000 0.0000 -0.0000
vn -1.0000 0.0000 -0.0000
vn 0.0000 -1.0000 -0.0000
vn 0.0000 -1.0000 -0.0000
vn 1.0000 0.0000 -0.0000
vn 1.0000 0.0000 0.0000
vn 0.0000 0.0000 -1.0000
vn 0.0000 0.0000 -1.0000
vn 0.0000 0.0000 1.0000
vn 0.0000 0.0000 1.0000
vn 0.0000 1.0000 -0.0000
vn 0.0000 1.0000 -0.0000
vn -1.0000 0.0000 -0.0000
vn -1.0000 0.0000 -0.0000
vn 0.0000 -1.0000 -0.0000
vn 0.0000 -1.0000 -0.0000
vn 1.0000 0.0000 -0.0000
vn 1.0000 0.0000 0.0000
vn 0.0000 0.0000 -1.0000
vn 0.0000 0.0000 -1.0000
vn 0.0000 0.0000 1.0000
vn 0.0000 0.0000 1.0000
vn 0.0000 1.0000 -0.0000
vn 0.0000 1.0000 -0.0000
vn -1.0000 0.0000 -0.0000
vn -1.0000 0.0000 -0.0000
vn 0.0000 -1.0000 -0.0000
vn 0.0000 -1.0000 -0.0000
vn 1.0000 0.0000 -0.0000
vn 1.0000 0.0000 0.0000
vn 0.0000 0.0000 -1.0000
vn 0.0000 0.0000 -1.0000
vn 0.0000 0.0000 1.0000
vn 0.0000 0.0000 1.0000
vn 0.0000 1.0000 -0.0000
vn 0.0000 1.0000 -0.0000
vn -1.0000 0.0000 -0.0000
vn -1.0000 0.0000 -0.0000
vn 0.0000 -1.0000 -0.0000
vn 0.0000 -1.0000 -0.0000
vn 1.0000 0.0000 -0.0000
vn 1.0000 0.0000 0.0000
vn 0.0000 0.0000 -1.0000
vn 0.0000 0.0000 -1.0000
vn 0.0000 0.0000 1.0000
vn 0.0000 0.0000 1.0000
vn 0.0000 1.0000 -0.0000
vn 0.0000 1.0000 -0.0000
vn -1.0000 0.0000 -0.0000
vn -1.0000 0.0000 -0.0000
vn 0.0000 -1.0000 -0.0000
vn 0.0000 -1.0000 -0.0000
vn 1.0000 0.0000 -0.0000
vn 1.0000 0.0000 0.0000
vn 0.0000 0.0000 -1.0000
vn 0.0000 0.0000 -1.0000
vn 0.0000 0.0000 1.0000
vn 0.0000 0.0000 1.0000
vn 0.0000 1.0000 -0.0000
vn 0.0000 1.0000 -0.0000
vn -1.0000 0.0000 -0.0000
vn -1.0000 0.0000 -0.0000
vn 0.0000 -1.0000 -0.0000
vn 0.0000 -1.0000 -0.0000
vn 1.0000 0.0000 -0.0000
vn 1.0000 0.0000 0.0000
vn 0.0000 0.0000 -1.0000
vn 0.0000 0.0000 -1.0000
vn 0.0000 0.0000 1.0000
vn 0.0000 0.0000 1.0000
vn 0.0000 1.0000 -0.0000
vn 0.0000 1.0000 -0.0000
vn -1.0000 0.0000 -0.0000
vn -1.0000 0.0000 -0.0000
vn 0.0000 -1.0000 -0.0000
vn 0.0000 -1.0000 -0.0000
vn 1.0000 0.0000 -0.0000
vn 1.0000 0.0000 0.0000
vn 0.0000 0.3827 -0.9239
vn -0.0000 0.3827 -0.9239
vn 0.0000 0.9239 -0.3827
vn -0.0000 0.9239 -0.3827
vn 0.0000 0.9239 0.3827
vn 0.0000 0.9239 0.3827
vn 0.0000 0.3827 0.9239
vn 0.0000 0.3827 0.9239
vn 0.0000 -0.3827 0.9239
vn 0.0000 -0.3827 0.9239
vn 0.0000 -0.9239 0.3827
vn 0.0000 -0.9239 0.3827
vn 0.0000 -0.9239 -0.3827
vn 0.0000 -0.9239 -0.3827
vn 0.0000 -0.3827 -0.9239
vn 0.0000 -0.3827 -0.9239
vn 1.0000 0.0000 -0.0000
vn -1.0000 0.0000 -0.0000
vn 1.0000 0.0000 -0.0000
vn -1.0000 0.0000 -0.0000
vn 1.0000 0.0000 -0.0000
vn -1.0000 0.0000 -0.0000
vn 1.0000 0.0000 -0.0000
vn -1.0000 0.0000 0.0000
vn 1.0000 0.0000 -0.0000
vn -1.0000 0.0000 -0.0000
vn 1.0000 0.0000 -0.0000
vn -1.0000 0.0000 -0.0000
vn 0.0000 0.0000 -1.0000
vn 0.0000 0.0000 -1.0000
vn 0.0000 0.0000 1.0000
vn 0.0000 0.0000 1.0000
vn 0.0000 1.0000 -0.0000
vn 0.0000 1.0000 -0.0000
vn -0.9578 0.0000 -0.2873
vn -0.9578 0.0000 -0.2873
vn 0.0000 -1.0000 -0.0000
vn 0.0000 -1.0000 -0.0000
vn 0.9578 0.0000 0.2873
vn 0.9578 0.0000 0.2873
vn 0.0000 0.0000 -1.0000
vn 0.0000 0.0000 -1.0000
vn 0.0000 0.0000 1.0000
vn 0.0000 0.0000 1.0000
vn 0.0000 1.0000 -0.0000
vn 0.0000 1.0000 -0.0000
vn -1.0000 0.0000 -0.0000
vn -1.0000 0.0000 -0.0000
vn 0.0000 -1.0000 -0.0000
vn 0.0000 -1.0000 -0.0000
vn 1.0000 0.0000 -0.0000
vn 1.0000 0.0000 0.0000
vn 0.0000 0.0000 -1.0000
vn 0.0000 0.0000 -1.0000
vn 0.0000 0.0000 1.0000
vn 0.0000 0.0000 1.0000
vn 0.0000 1.0000 -0.0000
vn 0.0000 1.0000 -0.0000
vn -1.0000 0.0000 -0.0000
vn -1.0000 0.0000 -0.0000
vn 0.0000 -1.0000 -0.0000
vn 0.0000 -1.0000 -0.0000
vn 1.0000 0.0000 -0.0000
vn 1.0000 0.0000 0.0000
vn 0.0000 0.0000 -1.0000
vn 0.0000 0.0000 -1.0000
vn 0.0000 0.0000 1.0000
vn 0.0000 0.0000 1.0000
vn 0.0000 1.0000 -0.0000
vn 0.0000 1.0000 -0.0000
vn -1.0000 0.0000 -0.0000
vn -1.0000 0.0000 -0.0000
vn 0.0000 -1.0000 -0.0000
vn 0.0000 -1.0000 -0.0000
vn 1.0000 0.0000 -0.0000
vn 1.0000 0.0000 0.0000
f 1/1/1 2/1/1 3/1/1
f 4/1/2 5/1/2 6/1/2
f 7/1/3 8/1/3 9/1/3
f 10/1/4 11/1/4 12/1/4
f 13/1/5 14/1/5 15/1/5
f 16/1/6 17/1/6 18/1/6
f 19/1/7 20/1/7 21/1/7
f 22/1/8 23/1/8 24/1/8
f 25/1/9 26/1/9 27/1/9
f 28/1/10 29/1/10 30/1/10
f 31/1/11 32/1/11 33/1/11
f 34/1/12 35/1/12 36/1/12
f 37/2/13 38/2/13 39/2/13
f 40/2/14 41/2/14 42/2/14
f 43/2/15 44/2/15 45/2/15
f 46/2/16 47/2/16 48/2/16
f 49/2/17 50/2/17 51/2/17
f 52/2/18 53/2/18 54/2/18
f 55/2/19 56/2/19 57/2/19
f 58/2/20 59/2/20 60/2/20
f 61/2/21 62/2/21 63/2/21
f 64/2/22 65/2/22 66/2/22
f 67/2/23 68/2/23 69/2/23
f 70/2/24 71/2/24 72/2/24
f 73/2/25 74/2/25 75/2/25
f 76/2/26 77/2/26 78/2/26
f 79/2/27 80/2/27 81/2/27
f 82/2/28 83/2/28 84/2/28
f 85/2/29 86/2/29 87/2/29
f 88/2/30 89/2/30 90/2/30
f 91/2/31 92/2/31 93/2/31
f 94/2/32 95/2/32 96/2/32
f 97/2/33 98/2/33 99/2/33
f 100/2/34 101/2/34 102/2/34
f 103/2/35 104/2/35 105/2/35
f 106/2/36 107/2/36 108/2/36
f 109/2/37 110/2/37 111/2/37
f 112/2/38 113/2/38 114/2/38
f 115/2/39 116/2/39 117/2/39
f 118/2/40 119/2/40 120/2/40
f 121/2/41 122/2/41 123/2/41
f 124/2/42 125/2/42 126/2/42
f 127/2/43 128/2/43 129/2/43
f 130/2/44 131/2/44 132/2/44
f 133/2/45 134/2/45 135/2/45
f 136/2/46 137/2/46 138/2/46
f 139/2/47 140/2/47 141/2/47
f 142/2/48 143/2/48 144/2/48
f 145/2/49 146/2/49 147/2/49
f 148/2/50 149/2/50 150/2/50
f 151/2/51 152/2/51 153/2/51
f 154/2/52 155/2/52 156/2/52
f 157/2/53 158/2/53 159/2/53
f 160/2/54 161/2/54 162/2/54
f 163/2/55 164/2/55 165/2/55
f 166/2/56 167/2/56 168/2/56
f 169/2/57 170/2/57 171/2/57
f 172/2/58 173/2/58 174/2/58
f 175/2/59 176/2/59 177/2/59
f 178/2/60 179/2/60 180/2/60
f 181/2/61 182/2/61 183/2/61
f 184/2/62 185/2/62 186/2/62
f 187/2/63 188/2/63 189/2/63
f 190/2/64 191/2/64 192/2/64
f 193/2/65 194/2/65 195/2/65
f 196/2/66 197/2/66 198/2/66
f 199/2/67 200/2/67 201/2/67
f 202/2/68 203/2/68 204/2/68
f 205/2/69 206/2/69 207/2/69
f 208/2/70 209/2/70 210/2/70
f 211/2/71 212/2/71 213/2/71
f 214/2/72 215/2/72 216/2/72
f 217/3/73 218/3/73 219/3/73
f 220/3/74 221/3/74 222/3/74
f 223/3/75 224/3/75 225/3/75
f 226/3/76 227/3/76 228/3/76
f 229/3/77 230/3/77 231/3/77
f 232/3/78 233/3/78 234/3/78
f 235/3/79 236/3/79 237/3/79
f 238/3/80 239/3/80 240/3/80
f 241/3/81 242/3/81 243/3/81
f 244/3/82 245/3/82 246/3/82
f 247/3/83 248/3/83 249/3/83
f 250/3/84 251/3/84 252/3/84
f 253/1/85 254/1/85 255/1/85
f 256/1/86 257/1/86 258/1/86
f 259/1/87 260/1/87 261/1/87
f 262/1/88 263/1/88 264/1/88
f 265/1/89 266/1/89 267/1/89
f 268/1/90 269/1/90 270/1/90
f 271/1/91 272/1/91 273/1/91
f 274/1/92 275/1/92 276/1/92
f 277/1/93 278/1/93 279/1/93
f 280/1/94 281/1/94 282/1/94
f 283/1/95 284/1/95 285/1/95
f 286/1/96 287/1/96 288/1/96
f 289/1/97 290/1/97 291/1/97
f 292/1/98 293/1/98 294/1/98
f 295/1/99 296/1/99 297/1/99
f 298/1/100 299/1/100 300/1/100
f 301/2/101 302/2/101 303/2/101
f 304/2/102 305/2/102 306/2/102
f 307/2/103 308/2/103 309/2/103
f 310/2/104 311/2/104 312/2/104
f 313/2/105 314/2/105 315/2/105
f 316/2/106 317/2/106 318/2/106
f 319/2/107 320/2/107 321/2/107
f 322/2/108 323/2/108 324/2/108
f 325/2/109 326/2/109 327/2/109
f 328/2/110 329/2/110 330/2/110
f 331/2/111 332/2/111 333/2/111
f 334/2/112 335/2/112 336/2/112
f 337/4/113 338/4/113 339/4/113
f 340/4/114 341/4/114 342/4/114
f 343/4/115 344/4/115 345/4/115
f 346/4/116 347/4/116 348/4/116
f 349/4/117 350/4/117 351/4/117
f 352/4/118 353/4/118 354/4/118
f 355/4/119 356/4/119 357/4/119
f 358/4/120 359/4/120 360/4/120
f 361/4/121 362/4/121 363/4/121
f 364/4/122 365/4/122 366/4/122
f 367/4/123 368/4/123 369/4/123
f 370/4/124 371/4/124 372/4/124
f 373/1/125 374/1/125 375/1/125
f 376/1/126 377/1/126 378/1/126
f 379/1/127 380/1/127 381/1/127
f 382/1/128 383/1/128 384/1/128
f 385/1/129 386/1/129 387/1/129
f 388/1/130 389/1/130 390/1/130
f 391/1/131 392/1/131 393/1/131
f 394/1/132 395/1/132 396/1/132
f 397/1/133 398/1/133 399/1/133
f 400/1/134 401/1/134 402/1/134
f 403/1/135 404/1/135 405/1/135
f 406/1/136 407/1/136 408/1/136
f 409/1/137 410/1/137 411/1/137
f 412/1/138 413/1/138 414/1/138
f 415/1/139 416/1/139 417/1/139
f 418/1/140 419/1/140 420/1/140
f 421/1/141 422/1/141 423/1/141
f 424/1/142 425/1/142 426/1/142
f 427/1/143 428/1/143 429/1/143
f 430/1/144 431/1/144 432/1/144
f 433/1/145 434/1/145 435/1/145
f 436/1/146 437/1/146 438/1/146
f 439/1/147 440/1/147 441/1/147
f 442/1/148 443/1/148 444/1/148
f 445/1/149 446/1/149 447/1/149
f 448/1/150 449/1/150 450/1/150
f 451/1/151 452/1/151 453/1/151
f 454/1/152 455/1/152 456/1/152
f 457/1/153 458/1/153 459/1/153
f 460/1/154 461/1/154 462/1/154
f 463/1/155 464/1/155 465/1/155
f 466/1/156 467/1/156 468/1/156
f 469/1/157 470/1/157 471/1/157
f 472/1/158 473/1/158 474/1/158
f 475/1/159 476/1/159 477/1/159
f 478/1/160 479/1/160 480/1/160
