# RF2 dressing_world: generated by scripts/mapkit/weapon_models.py. Centimetres, Y up.
o dressing_world
usemtl weapons_palette.png
v -12.0000 0.0000 -8.0000
v -12.0000 0.0000 8.0000
v 12.0000 0.0000 8.0000
v -12.0000 0.0000 -8.0000
v 12.0000 0.0000 8.0000
v 12.0000 0.0000 -8.0000
v -12.0000 5.0000 -8.0000
v 12.0000 5.0000 -8.0000
v 12.0000 5.0000 8.0000
v -12.0000 5.0000 -8.0000
v 12.0000 5.0000 8.0000
v -12.0000 5.0000 8.0000
v -12.0000 0.0000 -8.0000
v 12.0000 0.0000 -8.0000
v 12.0000 5.0000 -8.0000
v -12.0000 0.0000 -8.0000
v 12.0000 5.0000 -8.0000
v -12.0000 5.0000 -8.0000
v 12.0000 0.0000 -8.0000
v 12.0000 0.0000 8.0000
v 12.0000 5.0000 8.0000
v 12.0000 0.0000 -8.0000
v 12.0000 5.0000 8.0000
v 12.0000 5.0000 -8.0000
v 12.0000 0.0000 8.0000
v -12.0000 0.0000 8.0000
v -12.0000 5.0000 8.0000
v 12.0000 0.0000 8.0000
v -12.0000 5.0000 8.0000
v 12.0000 5.0000 8.0000
v -12.0000 0.0000 8.0000
v -12.0000 0.0000 -8.0000
v -12.0000 5.0000 -8.0000
v -12.0000 0.0000 8.0000
v -12.0000 5.0000 -8.0000
v -12.0000 5.0000 8.0000
v -2.5000 5.0000 -8.0000
v -2.5000 5.0000 8.0000
v 2.5000 5.0000 8.0000
v -2.5000 5.0000 -8.0000
v 2.5000 5.0000 8.0000
v 2.5000 5.0000 -8.0000
v -2.5000 5.3000 -8.0000
v 2.5000 5.3000 -8.0000
v 2.5000 5.3000 8.0000
v -2.5000 5.3000 -8.0000
v 2.5000 5.3000 8.0000
v -2.5000 5.3000 8.0000
v -2.5000 5.0000 -8.0000
v 2.5000 5.0000 -8.0000
v 2.5000 5.3000 -8.0000
v -2.5000 5.0000 -8.0000
v 2.5000 5.3000 -8.0000
v -2.5000 5.3000 -8.0000
v 2.5000 5.0000 -8.0000
v 2.5000 5.0000 8.0000
v 2.5000 5.3000 8.0000
v 2.5000 5.0000 -8.0000
v 2.5000 5.3000 8.0000
v 2.5000 5.3000 -8.0000
v 2.5000 5.0000 8.0000
v -2.5000 5.0000 8.0000
v -2.5000 5.3000 8.0000
v 2.5000 5.0000 8.0000
v -2.5000 5.3000 8.0000
v 2.5000 5.3000 8.0000
v -2.5000 5.0000 8.0000
v -2.5000 5.0000 -8.0000
v -2.5000 5.3000 -8.0000
v -2.5000 5.0000 8.0000
v -2.5000 5.3000 -8.0000
v -2.5000 5.3000 8.0000
v -12.0000 5.0000 -2.5000
v -12.0000 5.0000 2.5000
v 12.0000 5.0000 2.5000
v -12.0000 5.0000 -2.5000
v 12.0000 5.0000 2.5000
v 12.0000 5.0000 -2.5000
v -12.0000 5.2000 -2.5000
v 12.0000 5.2000 -2.5000
v 12.0000 5.2000 2.5000
v -12.0000 5.2000 -2.5000
v 12.0000 5.2000 2.5000
v -12.0000 5.2000 2.5000
v -12.0000 5.0000 -2.5000
v 12.0000 5.0000 -2.5000
v 12.0000 5.2000 -2.5000
v -12.0000 5.0000 -2.5000
v 12.0000 5.2000 -2.5000
v -12.0000 5.2000 -2.5000
v 12.0000 5.0000 -2.5000
v 12.0000 5.0000 2.5000
v 12.0000 5.2000 2.5000
v 12.0000 5.0000 -2.5000
v 12.0000 5.2000 2.5000
v 12.0000 5.2000 -2.5000
v 12.0000 5.0000 2.5000
v -12.0000 5.0000 2.5000
v -12.0000 5.2000 2.5000
v 12.0000 5.0000 2.5000
v -12.0000 5.2000 2.5000
v 12.0000 5.2000 2.5000
v -12.0000 5.0000 2.5000
v -12.0000 5.0000 -2.5000
v -12.0000 5.2000 -2.5000
v -12.0000 5.0000 2.5000
v -12.0000 5.2000 -2.5000
v -12.0000 5.2000 2.5000
vt 0.1250 0.3750
vt 0.3750 0.3750
vn 0.0000 1.0000 0.0000
vn 0.0000 1.0000 0.0000
vn 0.0000 -1.0000 0.0000
vn 0.0000 -1.0000 0.0000
vn 0.0000 0.0000 1.0000
vn 0.0000 0.0000 1.0000
vn -1.0000 0.0000 0.0000
vn -1.0000 0.0000 0.0000
vn 0.0000 0.0000 -1.0000
vn 0.0000 0.0000 -1.0000
vn 1.0000 0.0000 0.0000
vn 1.0000 -0.0000 0.0000
vn 0.0000 1.0000 0.0000
vn 0.0000 1.0000 0.0000
vn 0.0000 -1.0000 0.0000
vn 0.0000 -1.0000 0.0000
vn 0.0000 0.0000 1.0000
vn 0.0000 0.0000 1.0000
vn -1.0000 0.0000 0.0000
vn -1.0000 0.0000 0.0000
vn 0.0000 0.0000 -1.0000
vn 0.0000 0.0000 -1.0000
vn 1.0000 0.0000 0.0000
vn 1.0000 -0.0000 0.0000
vn 0.0000 1.0000 0.0000
vn 0.0000 1.0000 0.0000
vn 0.0000 -1.0000 0.0000
vn 0.0000 -1.0000 0.0000
vn 0.0000 0.0000 1.0000
vn 0.0000 0.0000 1.0000
vn -1.0000 0.0000 0.0000
vn -1.0000 0.0000 0.0000
vn 0.0000 0.0000 -1.0000
vn 0.0000 0.0000 -1.0000
vn 1.0000 0.0000 0.0000
vn 1.0000 -0.0000 0.0000
f 1/1/1 2/1/1 3/1/1
f 4/1/2 5/1/2 6/1/2
f 7/1/3 8/1/3 9/1/3
f 10/1/4 11/1/4 12/1/4
f 13/1/5 14/1/5 15/1/5
f 16/1/6 17/1/6 18/1/6
f 19/1/7 20/1/7 21/1/7
f 22/1/8 23/1/8 24/1/8
f 25/1/9 26/1/9 27/1/9
f 28/1/10 29/1/10 30/1/10
f 31/1/11 32/1/11 33/1/11
f 34/1/12 35/1/12 36/1/12
f 37/2/13 38/2/13 39/2/13
f 40/2/14 41/2/14 42/2/14
f 43/2/15 44/2/15 45/2/15
f 46/2/16 47/2/16 48/2/16
f 49/2/17 50/2/17 51/2/17
f 52/2/18 53/2/18 54/2/18
f 55/2/19 56/2/19 57/2/19
f 58/2/20 59/2/20 60/2/20
f 61/2/21 62/2/21 63/2/21
f 64/2/22 65/2/22 66/2/22
f 67/2/23 68/2/23 69/2/23
f 70/2/24 71/2/24 72/2/24
f 73/2/25 74/2/25 75/2/25
f 76/2/26 77/2/26 78/2/26
f 79/2/27 80/2/27 81/2/27
f 82/2/28 83/2/28 84/2/28
f 85/2/29 86/2/29 87/2/29
f 88/2/30 89/2/30 90/2/30
f 91/2/31 92/2/31 93/2/31
f 94/2/32 95/2/32 96/2/32
f 97/2/33 98/2/33 99/2/33
f 100/2/34 101/2/34 102/2/34
f 103/2/35 104/2/35 105/2/35
f 106/2/36 107/2/36 108/2/36
