# RF2 fal_world: generated by scripts/mapkit/weapon_models.py. Centimetres, Y up.
o fal_world
usemtl weapons_palette.png
v -10.0000 0.3000 0.0000
v -10.0000 4.5000 0.0000
v 18.0000 4.5000 0.0000
v -10.0000 0.3000 0.0000
v 18.0000 4.5000 0.0000
v 18.0000 0.3000 0.0000
v -10.0000 0.3000 -6.5000
v 18.0000 0.3000 -6.5000
v 18.0000 4.5000 -6.5000
v -10.0000 0.3000 -6.5000
v 18.0000 4.5000 -6.5000
v -10.0000 4.5000 -6.5000
v -10.0000 0.3000 0.0000
v 18.0000 0.3000 0.0000
v 18.0000 0.3000 -6.5000
v -10.0000 0.3000 0.0000
v 18.0000 0.3000 -6.5000
v -10.0000 0.3000 -6.5000
v 18.0000 0.3000 0.0000
v 18.0000 4.5000 0.0000
v 18.0000 4.5000 -6.5000
v 18.0000 0.3000 0.0000
v 18.0000 4.5000 -6.5000
v 18.0000 0.3000 -6.5000
v 18.0000 4.5000 0.0000
v -10.0000 4.5000 0.0000
v -10.0000 4.5000 -6.5000
v 18.0000 4.5000 0.0000
v -10.0000 4.5000 -6.5000
v 18.0000 4.5000 -6.5000
v -10.0000 4.5000 0.0000
v -10.0000 0.3000 0.0000
v -10.0000 0.3000 -6.5000
v -10.0000 4.5000 0.0000
v -10.0000 0.3000 -6.5000
v -10.0000 4.5000 -6.5000
v 0.0000 1.8000 -7.2000
v 0.0000 3.0000 -7.2000
v 10.0000 3.0000 -7.2000
v 0.0000 1.8000 -7.2000
v 10.0000 3.0000 -7.2000
v 10.0000 1.8000 -7.2000
v 0.0000 1.8000 -8.0000
v 10.0000 1.8000 -8.0000
v 10.0000 3.0000 -8.0000
v 0.0000 1.8000 -8.0000
v 10.0000 3.0000 -8.0000
v 0.0000 3.0000 -8.0000
v 0.0000 1.8000 -7.2000
v 10.0000 1.8000 -7.2000
v 10.0000 1.8000 -8.0000
v 0.0000 1.8000 -7.2000
v 10.0000 1.8000 -8.0000
v 0.0000 1.8000 -8.0000
v 10.0000 1.8000 -7.2000
v 10.0000 3.0000 -7.2000
v 10.0000 3.0000 -8.0000
v 10.0000 1.8000 -7.2000
v 10.0000 3.0000 -8.0000
v 10.0000 1.8000 -8.0000
v 10.0000 3.0000 -7.2000
v 0.0000 3.0000 -7.2000
v 0.0000 3.0000 -8.0000
v 10.0000 3.0000 -7.2000
v 0.0000 3.0000 -8.0000
v 10.0000 3.0000 -8.0000
v 0.0000 3.0000 -7.2000
v 0.0000 1.8000 -7.2000
v 0.0000 1.8000 -8.0000
v 0.0000 3.0000 -7.2000
v 0.0000 1.8000 -8.0000
v 0.0000 3.0000 -8.0000
v 0.0000 1.8000 -6.5000
v 0.0000 3.0000 -6.5000
v 1.0000 3.0000 -6.5000
v 0.0000 1.8000 -6.5000
v 1.0000 3.0000 -6.5000
v 1.0000 1.8000 -6.5000
v 0.0000 1.8000 -7.2000
v 1.0000 1.8000 -7.2000
v 1.0000 3.0000 -7.2000
v 0.0000 1.8000 -7.2000
v 1.0000 3.0000 -7.2000
v 0.0000 3.0000 -7.2000
v 0.0000 1.8000 -6.5000
v 1.0000 1.8000 -6.5000
v 1.0000 1.8000 -7.2000
v 0.0000 1.8000 -6.5000
v 1.0000 1.8000 -7.2000
v 0.0000 1.8000 -7.2000
v 1.0000 1.8000 -6.5000
v 1.0000 3.0000 -6.5000
v 1.0000 3.0000 -7.2000
v 1.0000 1.8000 -6.5000
v 1.0000 3.0000 -7.2000
v 1.0000 1.8000 -7.2000
v 1.0000 3.0000 -6.5000
v 0.0000 3.0000 -6.5000
v 0.0000 3.0000 -7.2000
v 1.0000 3.0000 -6.5000
v 0.0000 3.0000 -7.2000
v 1.0000 3.0000 -7.2000
v 0.0000 3.0000 -6.5000
v 0.0000 1.8000 -6.5000
v 0.0000 1.8000 -7.2000
v 0.0000 3.0000 -6.5000
v 0.0000 1.8000 -7.2000
v 0.0000 3.0000 -7.2000
v 9.0000 1.8000 -6.5000
v 9.0000 3.0000 -6.5000
v 10.0000 3.0000 -6.5000
v 9.0000 1.8000 -6.5000
v 10.0000 3.0000 -6.5000
v 10.0000 1.8000 -6.5000
v 9.0000 1.8000 -7.2000
v 10.0000 1.8000 -7.2000
v 10.0000 3.0000 -7.2000
v 9.0000 1.8000 -7.2000
v 10.0000 3.0000 -7.2000
v 9.0000 3.0000 -7.2000
v 9.0000 1.8000 -6.5000
v 10.0000 1.8000 -6.5000
v 10.0000 1.8000 -7.2000
v 9.0000 1.8000 -6.5000
v 10.0000 1.8000 -7.2000
v 9.0000 1.8000 -7.2000
v 10.0000 1.8000 -6.5000
v 10.0000 3.0000 -6.5000
v 10.0000 3.0000 -7.2000
v 10.0000 1.8000 -6.5000
v 10.0000 3.0000 -7.2000
v 10.0000 1.8000 -7.2000
v 10.0000 3.0000 -6.5000
v 9.0000 3.0000 -6.5000
v 9.0000 3.0000 -7.2000
v 10.0000 3.0000 -6.5000
v 9.0000 3.0000 -7.2000
v 10.0000 3.0000 -7.2000
v 9.0000 3.0000 -6.5000
v 9.0000 1.8000 -6.5000
v 9.0000 1.8000 -7.2000
v 9.0000 3.0000 -6.5000
v 9.0000 1.8000 -7.2000
v 9.0000 3.0000 -7.2000
v -9.0000 1.8000 -6.5000
v -9.0000 3.0000 -6.5000
v -7.0000 3.0000 -6.5000
v -9.0000 1.8000 -6.5000
v -7.0000 3.0000 -6.5000
v -7.0000 1.8000 -6.5000
v -9.0000 1.8000 -8.6000
v -7.0000 1.8000 -8.6000
v -7.0000 3.0000 -8.6000
v -9.0000 1.8000 -8.6000
v -7.0000 3.0000 -8.6000
v -9.0000 3.0000 -8.6000
v -9.0000 1.8000 -6.5000
v -7.0000 1.8000 -6.5000
v -7.0000 1.8000 -8.6000
v -9.0000 1.8000 -6.5000
v -7.0000 1.8000 -8.6000
v -9.0000 1.8000 -8.6000
v -7.0000 1.8000 -6.5000
v -7.0000 3.0000 -6.5000
v -7.0000 3.0000 -8.6000
v -7.0000 1.8000 -6.5000
v -7.0000 3.0000 -8.6000
v -7.0000 1.8000 -8.6000
v -7.0000 3.0000 -6.5000
v -9.0000 3.0000 -6.5000
v -9.0000 3.0000 -8.6000
v -7.0000 3.0000 -6.5000
v -9.0000 3.0000 -8.6000
v -7.0000 3.0000 -8.6000
v -9.0000 3.0000 -6.5000
v -9.0000 1.8000 -6.5000
v -9.0000 1.8000 -8.6000
v -9.0000 3.0000 -6.5000
v -9.0000 1.8000 -8.6000
v -9.0000 3.0000 -8.6000
v 12.0000 4.5000 -4.0000
v 12.0000 7.4000 -4.0000
v 14.0000 7.4000 -4.0000
v 12.0000 4.5000 -4.0000
v 14.0000 7.4000 -4.0000
v 14.0000 4.5000 -4.0000
v 12.0000 4.5000 -5.2000
v 14.0000 4.5000 -5.2000
v 14.0000 7.4000 -5.2000
v 12.0000 4.5000 -5.2000
v 14.0000 7.4000 -5.2000
v 12.0000 7.4000 -5.2000
v 12.0000 4.5000 -4.0000
v 14.0000 4.5000 -4.0000
v 14.0000 4.5000 -5.2000
v 12.0000 4.5000 -4.0000
v 14.0000 4.5000 -5.2000
v 12.0000 4.5000 -5.2000
v 14.0000 4.5000 -4.0000
v 14.0000 7.4000 -4.0000
v 14.0000 7.4000 -5.2000
v 14.0000 4.5000 -4.0000
v 14.0000 7.4000 -5.2000
v 14.0000 4.5000 -5.2000
v 14.0000 7.4000 -4.0000
v 12.0000 7.4000 -4.0000
v 12.0000 7.4000 -5.2000
v 14.0000 7.4000 -4.0000
v 12.0000 7.4000 -5.2000
v 14.0000 7.4000 -5.2000
v 12.0000 7.4000 -4.0000
v 12.0000 4.5000 -4.0000
v 12.0000 4.5000 -5.2000
v 12.0000 7.4000 -4.0000
v 12.0000 4.5000 -5.2000
v 12.0000 7.4000 -5.2000
v 18.0000 0.0000 -0.8000
v 18.0000 4.8000 -0.8000
v 40.0000 4.8000 -0.8000
v 18.0000 0.0000 -0.8000
v 40.0000 4.8000 -0.8000
v 40.0000 0.0000 -0.8000
v 18.0000 0.0000 -6.2000
v 40.0000 0.0000 -6.2000
v 40.0000 4.8000 -6.2000
v 18.0000 0.0000 -6.2000
v 40.0000 4.8000 -6.2000
v 18.0000 4.8000 -6.2000
v 18.0000 0.0000 -0.8000
v 40.0000 0.0000 -0.8000
v 40.0000 0.0000 -6.2000
v 18.0000 0.0000 -0.8000
v 40.0000 0.0000 -6.2000
v 18.0000 0.0000 -6.2000
v 40.0000 0.0000 -0.8000
v 40.0000 4.8000 -0.8000
v 40.0000 4.8000 -6.2000
v 40.0000 0.0000 -0.8000
v 40.0000 4.8000 -6.2000
v 40.0000 0.0000 -6.2000
v 40.0000 4.8000 -0.8000
v 18.0000 4.8000 -0.8000
v 18.0000 4.8000 -6.2000
v 40.0000 4.8000 -0.8000
v 18.0000 4.8000 -6.2000
v 40.0000 4.8000 -6.2000
v 18.0000 4.8000 -0.8000
v 18.0000 0.0000 -0.8000
v 18.0000 0.0000 -6.2000
v 18.0000 4.8000 -0.8000
v 18.0000 0.0000 -6.2000
v 18.0000 4.8000 -6.2000
v 21.0000 4.8000 -3.0000
v 21.0000 4.9000 -3.0000
v 22.2000 4.9000 -3.0000
v 21.0000 4.8000 -3.0000
v 22.2000 4.9000 -3.0000
v 22.2000 4.8000 -3.0000
v 21.0000 4.8000 -5.4000
v 22.2000 4.8000 -5.4000
v 22.2000 4.9000 -5.4000
v 21.0000 4.8000 -5.4000
v 22.2000 4.9000 -5.4000
v 21.0000 4.9000 -5.4000
v 21.0000 4.8000 -3.0000
v 22.2000 4.8000 -3.0000
v 22.2000 4.8000 -5.4000
v 21.0000 4.8000 -3.0000
v 22.2000 4.8000 -5.4000
v 21.0000 4.8000 -5.4000
v 22.2000 4.8000 -3.0000
v 22.2000 4.9000 -3.0000
v 22.2000 4.9000 -5.4000
v 22.2000 4.8000 -3.0000
v 22.2000 4.9000 -5.4000
v 22.2000 4.8000 -5.4000
v 22.2000 4.9000 -3.0000
v 21.0000 4.9000 -3.0000
v 21.0000 4.9000 -5.4000
v 22.2000 4.9000 -3.0000
v 21.0000 4.9000 -5.4000
v 22.2000 4.9000 -5.4000
v 21.0000 4.9000 -3.0000
v 21.0000 4.8000 -3.0000
v 21.0000 4.8000 -5.4000
v 21.0000 4.9000 -3.0000
v 21.0000 4.8000 -5.4000
v 21.0000 4.9000 -5.4000
v 24.0000 4.8000 -3.0000
v 24.0000 4.9000 -3.0000
v 25.2000 4.9000 -3.0000
v 24.0000 4.8000 -3.0000
v 25.2000 4.9000 -3.0000
v 25.2000 4.8000 -3.0000
v 24.0000 4.8000 -5.4000
v 25.2000 4.8000 -5.4000
v 25.2000 4.9000 -5.4000
v 24.0000 4.8000 -5.4000
v 25.2000 4.9000 -5.4000
v 24.0000 4.9000 -5.4000
v 24.0000 4.8000 -3.0000
v 25.2000 4.8000 -3.0000
v 25.2000 4.8000 -5.4000
v 24.0000 4.8000 -3.0000
v 25.2000 4.8000 -5.4000
v 24.0000 4.8000 -5.4000
v 25.2000 4.8000 -3.0000
v 25.2000 4.9000 -3.0000
v 25.2000 4.9000 -5.4000
v 25.2000 4.8000 -3.0000
v 25.2000 4.9000 -5.4000
v 25.2000 4.8000 -5.4000
v 25.2000 4.9000 -3.0000
v 24.0000 4.9000 -3.0000
v 24.0000 4.9000 -5.4000
v 25.2000 4.9000 -3.0000
v 24.0000 4.9000 -5.4000
v 25.2000 4.9000 -5.4000
v 24.0000 4.9000 -3.0000
v 24.0000 4.8000 -3.0000
v 24.0000 4.8000 -5.4000
v 24.0000 4.9000 -3.0000
v 24.0000 4.8000 -5.4000
v 24.0000 4.9000 -5.4000
v 27.0000 4.8000 -3.0000
v 27.0000 4.9000 -3.0000
v 28.2000 4.9000 -3.0000
v 27.0000 4.8000 -3.0000
v 28.2000 4.9000 -3.0000
v 28.2000 4.8000 -3.0000
v 27.0000 4.8000 -5.4000
v 28.2000 4.8000 -5.4000
v 28.2000 4.9000 -5.4000
v 27.0000 4.8000 -5.4000
v 28.2000 4.9000 -5.4000
v 27.0000 4.9000 -5.4000
v 27.0000 4.8000 -3.0000
v 28.2000 4.8000 -3.0000
v 28.2000 4.8000 -5.4000
v 27.0000 4.8000 -3.0000
v 28.2000 4.8000 -5.4000
v 27.0000 4.8000 -5.4000
v 28.2000 4.8000 -3.0000
v 28.2000 4.9000 -3.0000
v 28.2000 4.9000 -5.4000
v 28.2000 4.8000 -3.0000
v 28.2000 4.9000 -5.4000
v 28.2000 4.8000 -5.4000
v 28.2000 4.9000 -3.0000
v 27.0000 4.9000 -3.0000
v 27.0000 4.9000 -5.4000
v 28.2000 4.9000 -3.0000
v 27.0000 4.9000 -5.4000
v 28.2000 4.9000 -5.4000
v 27.0000 4.9000 -3.0000
v 27.0000 4.8000 -3.0000
v 27.0000 4.8000 -5.4000
v 27.0000 4.9000 -3.0000
v 27.0000 4.8000 -5.4000
v 27.0000 4.9000 -5.4000
v 30.0000 4.8000 -3.0000
v 30.0000 4.9000 -3.0000
v 31.2000 4.9000 -3.0000
v 30.0000 4.8000 -3.0000
v 31.2000 4.9000 -3.0000
v 31.2000 4.8000 -3.0000
v 30.0000 4.8000 -5.4000
v 31.2000 4.8000 -5.4000
v 31.2000 4.9000 -5.4000
v 30.0000 4.8000 -5.4000
v 31.2000 4.9000 -5.4000
v 30.0000 4.9000 -5.4000
v 30.0000 4.8000 -3.0000
v 31.2000 4.8000 -3.0000
v 31.2000 4.8000 -5.4000
v 30.0000 4.8000 -3.0000
v 31.2000 4.8000 -5.4000
v 30.0000 4.8000 -5.4000
v 31.2000 4.8000 -3.0000
v 31.2000 4.9000 -3.0000
v 31.2000 4.9000 -5.4000
v 31.2000 4.8000 -3.0000
v 31.2000 4.9000 -5.4000
v 31.2000 4.8000 -5.4000
v 31.2000 4.9000 -3.0000
v 30.0000 4.9000 -3.0000
v 30.0000 4.9000 -5.4000
v 31.2000 4.9000 -3.0000
v 30.0000 4.9000 -5.4000
v 31.2000 4.9000 -5.4000
v 30.0000 4.9000 -3.0000
v 30.0000 4.8000 -3.0000
v 30.0000 4.8000 -5.4000
v 30.0000 4.9000 -3.0000
v 30.0000 4.8000 -5.4000
v 30.0000 4.9000 -5.4000
v 33.0000 4.8000 -3.0000
v 33.0000 4.9000 -3.0000
v 34.2000 4.9000 -3.0000
v 33.0000 4.8000 -3.0000
v 34.2000 4.9000 -3.0000
v 34.2000 4.8000 -3.0000
v 33.0000 4.8000 -5.4000
v 34.2000 4.8000 -5.4000
v 34.2000 4.9000 -5.4000
v 33.0000 4.8000 -5.4000
v 34.2000 4.9000 -5.4000
v 33.0000 4.9000 -5.4000
v 33.0000 4.8000 -3.0000
v 34.2000 4.8000 -3.0000
v 34.2000 4.8000 -5.4000
v 33.0000 4.8000 -3.0000
v 34.2000 4.8000 -5.4000
v 33.0000 4.8000 -5.4000
v 34.2000 4.8000 -3.0000
v 34.2000 4.9000 -3.0000
v 34.2000 4.9000 -5.4000
v 34.2000 4.8000 -3.0000
v 34.2000 4.9000 -5.4000
v 34.2000 4.8000 -5.4000
v 34.2000 4.9000 -3.0000
v 33.0000 4.9000 -3.0000
v 33.0000 4.9000 -5.4000
v 34.2000 4.9000 -3.0000
v 33.0000 4.9000 -5.4000
v 34.2000 4.9000 -5.4000
v 33.0000 4.9000 -3.0000
v 33.0000 4.8000 -3.0000
v 33.0000 4.8000 -5.4000
v 33.0000 4.9000 -3.0000
v 33.0000 4.8000 -5.4000
v 33.0000 4.9000 -5.4000
v 36.0000 4.8000 -3.0000
v 36.0000 4.9000 -3.0000
v 37.2000 4.9000 -3.0000
v 36.0000 4.8000 -3.0000
v 37.2000 4.9000 -3.0000
v 37.2000 4.8000 -3.0000
v 36.0000 4.8000 -5.4000
v 37.2000 4.8000 -5.4000
v 37.2000 4.9000 -5.4000
v 36.0000 4.8000 -5.4000
v 37.2000 4.9000 -5.4000
v 36.0000 4.9000 -5.4000
v 36.0000 4.8000 -3.0000
v 37.2000 4.8000 -3.0000
v 37.2000 4.8000 -5.4000
v 36.0000 4.8000 -3.0000
v 37.2000 4.8000 -5.4000
v 36.0000 4.8000 -5.4000
v 37.2000 4.8000 -3.0000
v 37.2000 4.9000 -3.0000
v 37.2000 4.9000 -5.4000
v 37.2000 4.8000 -3.0000
v 37.2000 4.9000 -5.4000
v 37.2000 4.8000 -5.4000
v 37.2000 4.9000 -3.0000
v 36.0000 4.9000 -3.0000
v 36.0000 4.9000 -5.4000
v 37.2000 4.9000 -3.0000
v 36.0000 4.9000 -5.4000
v 37.2000 4.9000 -5.4000
v 36.0000 4.9000 -3.0000
v 36.0000 4.8000 -3.0000
v 36.0000 4.8000 -5.4000
v 36.0000 4.9000 -3.0000
v 36.0000 4.8000 -5.4000
v 36.0000 4.9000 -5.4000
v 40.0000 2.4000 -5.1000
v 40.0000 3.0364 -4.8364
v 60.0000 3.0364 -4.8364
v 40.0000 2.4000 -5.1000
v 60.0000 3.0364 -4.8364
v 60.0000 2.4000 -5.1000
v 40.0000 3.0364 -4.8364
v 40.0000 3.3000 -4.2000
v 60.0000 3.3000 -4.2000
v 40.0000 3.0364 -4.8364
v 60.0000 3.3000 -4.2000
v 60.0000 3.0364 -4.8364
v 40.0000 3.3000 -4.2000
v 40.0000 3.0364 -3.5636
v 60.0000 3.0364 -3.5636
v 40.0000 3.3000 -4.2000
v 60.0000 3.0364 -3.5636
v 60.0000 3.3000 -4.2000
v 40.0000 3.0364 -3.5636
v 40.0000 2.4000 -3.3000
v 60.0000 2.4000 -3.3000
v 40.0000 3.0364 -3.5636
v 60.0000 2.4000 -3.3000
v 60.0000 3.0364 -3.5636
v 40.0000 2.4000 -3.3000
v 40.0000 1.7636 -3.5636
v 60.0000 1.7636 -3.5636
v 40.0000 2.4000 -3.3000
v 60.0000 1.7636 -3.5636
v 60.0000 2.4000 -3.3000
v 40.0000 1.7636 -3.5636
v 40.0000 1.5000 -4.2000
v 60.0000 1.5000 -4.2000
v 40.0000 1.7636 -3.5636
v 60.0000 1.5000 -4.2000
v 60.0000 1.7636 -3.5636
v 40.0000 1.5000 -4.2000
v 40.0000 1.7636 -4.8364
v 60.0000 1.7636 -4.8364
v 40.0000 1.5000 -4.2000
v 60.0000 1.7636 -4.8364
v 60.0000 1.5000 -4.2000
v 40.0000 1.7636 -4.8364
v 40.0000 2.4000 -5.1000
v 60.0000 2.4000 -5.1000
v 40.0000 1.7636 -4.8364
v 60.0000 2.4000 -5.1000
v 60.0000 1.7636 -4.8364
v 60.0000 2.4000 -5.1000
v 60.0000 3.0364 -4.8364
v 60.0000 3.3000 -4.2000
v 40.0000 2.4000 -5.1000
v 40.0000 3.3000 -4.2000
v 40.0000 3.0364 -4.8364
v 60.0000 2.4000 -5.1000
v 60.0000 3.3000 -4.2000
v 60.0000 3.0364 -3.5636
v 40.0000 2.4000 -5.1000
v 40.0000 3.0364 -3.5636
v 40.0000 3.3000 -4.2000
v 60.0000 2.4000 -5.1000
v 60.0000 3.0364 -3.5636
v 60.0000 2.4000 -3.3000
v 40.0000 2.4000 -5.1000
v 40.0000 2.4000 -3.3000
v 40.0000 3.0364 -3.5636
v 60.0000 2.4000 -5.1000
v 60.0000 2.4000 -3.3000
v 60.0000 1.7636 -3.5636
v 40.0000 2.4000 -5.1000
v 40.0000 1.7636 -3.5636
v 40.0000 2.4000 -3.3000
v 60.0000 2.4000 -5.1000
v 60.0000 1.7636 -3.5636
v 60.0000 1.5000 -4.2000
v 40.0000 2.4000 -5.1000
v 40.0000 1.5000 -4.2000
v 40.0000 1.7636 -3.5636
v 60.0000 2.4000 -5.1000
v 60.0000 1.5000 -4.2000
v 60.0000 1.7636 -4.8364
v 40.0000 2.4000 -5.1000
v 40.0000 1.7636 -4.8364
v 40.0000 1.5000 -4.2000
v 52.0000 1.8000 -4.2000
v 52.0000 3.0000 -4.2000
v 55.0000 3.0000 -4.2000
v 52.0000 1.8000 -4.2000
v 55.0000 3.0000 -4.2000
v 55.0000 1.8000 -4.2000
v 52.0000 1.8000 -9.5000
v 55.0000 1.8000 -9.5000
v 55.0000 3.0000 -9.5000
v 52.0000 1.8000 -9.5000
v 55.0000 3.0000 -9.5000
v 52.0000 3.0000 -9.5000
v 52.0000 1.8000 -4.2000
v 55.0000 1.8000 -4.2000
v 55.0000 1.8000 -9.5000
v 52.0000 1.8000 -4.2000
v 55.0000 1.8000 -9.5000
v 52.0000 1.8000 -9.5000
v 55.0000 1.8000 -4.2000
v 55.0000 3.0000 -4.2000
v 55.0000 3.0000 -9.5000
v 55.0000 1.8000 -4.2000
v 55.0000 3.0000 -9.5000
v 55.0000 1.8000 -9.5000
v 55.0000 3.0000 -4.2000
v 52.0000 3.0000 -4.2000
v 52.0000 3.0000 -9.5000
v 55.0000 3.0000 -4.2000
v 52.0000 3.0000 -9.5000
v 55.0000 3.0000 -9.5000
v 52.0000 3.0000 -4.2000
v 52.0000 1.8000 -4.2000
v 52.0000 1.8000 -9.5000
v 52.0000 3.0000 -4.2000
v 52.0000 1.8000 -9.5000
v 52.0000 3.0000 -9.5000
v 60.0000 2.4000 -5.4500
v 60.0000 3.2839 -5.0839
v 66.0000 3.2839 -5.0839
v 60.0000 2.4000 -5.4500
v 66.0000 3.2839 -5.0839
v 66.0000 2.4000 -5.4500
v 60.0000 3.2839 -5.0839
v 60.0000 3.6500 -4.2000
v 66.0000 3.6500 -4.2000
v 60.0000 3.2839 -5.0839
v 66.0000 3.6500 -4.2000
v 66.0000 3.2839 -5.0839
v 60.0000 3.6500 -4.2000
v 60.0000 3.2839 -3.3161
v 66.0000 3.2839 -3.3161
v 60.0000 3.6500 -4.2000
v 66.0000 3.2839 -3.3161
v 66.0000 3.6500 -4.2000
v 60.0000 3.2839 -3.3161
v 60.0000 2.4000 -2.9500
v 66.0000 2.4000 -2.9500
v 60.0000 3.2839 -3.3161
v 66.0000 2.4000 -2.9500
v 66.0000 3.2839 -3.3161
v 60.0000 2.4000 -2.9500
v 60.0000 1.5161 -3.3161
v 66.0000 1.5161 -3.3161
v 60.0000 2.4000 -2.9500
v 66.0000 1.5161 -3.3161
v 66.0000 2.4000 -2.9500
v 60.0000 1.5161 -3.3161
v 60.0000 1.1500 -4.2000
v 66.0000 1.1500 -4.2000
v 60.0000 1.5161 -3.3161
v 66.0000 1.1500 -4.2000
v 66.0000 1.5161 -3.3161
v 60.0000 1.1500 -4.2000
v 60.0000 1.5161 -5.0839
v 66.0000 1.5161 -5.0839
v 60.0000 1.1500 -4.2000
v 66.0000 1.5161 -5.0839
v 66.0000 1.1500 -4.2000
v 60.0000 1.5161 -5.0839
v 60.0000 2.4000 -5.4500
v 66.0000 2.4000 -5.4500
v 60.0000 1.5161 -5.0839
v 66.0000 2.4000 -5.4500
v 66.0000 1.5161 -5.0839
v 66.0000 2.4000 -5.4500
v 66.0000 3.2839 -5.0839
v 66.0000 3.6500 -4.2000
v 60.0000 2.4000 -5.4500
v 60.0000 3.6500 -4.2000
v 60.0000 3.2839 -5.0839
v 66.0000 2.4000 -5.4500
v 66.0000 3.6500 -4.2000
v 66.0000 3.2839 -3.3161
v 60.0000 2.4000 -5.4500
v 60.0000 3.2839 -3.3161
v 60.0000 3.6500 -4.2000
v 66.0000 2.4000 -5.4500
v 66.0000 3.2839 -3.3161
v 66.0000 2.4000 -2.9500
v 60.0000 2.4000 -5.4500
v 60.0000 2.4000 -2.9500
v 60.0000 3.2839 -3.3161
v 66.0000 2.4000 -5.4500
v 66.0000 2.4000 -2.9500
v 66.0000 1.5161 -3.3161
v 60.0000 2.4000 -5.4500
v 60.0000 1.5161 -3.3161
v 60.0000 2.4000 -2.9500
v 66.0000 2.4000 -5.4500
v 66.0000 1.5161 -3.3161
v 66.0000 1.1500 -4.2000
v 60.0000 2.4000 -5.4500
v 60.0000 1.1500 -4.2000
v 60.0000 1.5161 -3.3161
v 66.0000 2.4000 -5.4500
v 66.0000 1.1500 -4.2000
v 66.0000 1.5161 -5.0839
v 60.0000 2.4000 -5.4500
v 60.0000 1.5161 -5.0839
v 60.0000 1.1500 -4.2000
v 9.0000 0.8000 16.0000
v 9.0000 4.0000 16.0000
v 16.0000 4.0000 16.0000
v 9.0000 0.8000 16.0000
v 16.0000 4.0000 16.0000
v 16.0000 0.8000 16.0000
v 5.0000 0.8000 0.0000
v 12.0000 0.8000 0.0000
v 12.0000 4.0000 0.0000
v 5.0000 0.8000 0.0000
v 12.0000 4.0000 0.0000
v 5.0000 4.0000 0.0000
v 9.0000 0.8000 16.0000
v 16.0000 0.8000 16.0000
v 12.0000 0.8000 0.0000
v 9.0000 0.8000 16.0000
v 12.0000 0.8000 0.0000
v 5.0000 0.8000 0.0000
v 16.0000 0.8000 16.0000
v 16.0000 4.0000 16.0000
v 12.0000 4.0000 0.0000
v 16.0000 0.8000 16.0000
v 12.0000 4.0000 0.0000
v 12.0000 0.8000 0.0000
v 16.0000 4.0000 16.0000
v 9.0000 4.0000 16.0000
v 5.0000 4.0000 0.0000
v 16.0000 4.0000 16.0000
v 5.0000 4.0000 0.0000
v 12.0000 4.0000 0.0000
v 9.0000 4.0000 16.0000
v 9.0000 0.8000 16.0000
v 5.0000 0.8000 0.0000
v 9.0000 4.0000 16.0000
v 5.0000 0.8000 0.0000
v 5.0000 4.0000 0.0000
v -15.8500 0.6000 11.0000
v -15.8500 4.2000 11.0000
v -9.8500 4.2000 11.0000
v -15.8500 0.6000 11.0000
v -9.8500 4.2000 11.0000
v -9.8500 0.6000 11.0000
v -12.0000 0.6000 0.0000
v -6.0000 0.6000 0.0000
v -6.0000 4.2000 0.0000
v -12.0000 0.6000 0.0000
v -6.0000 4.2000 0.0000
v -12.0000 4.2000 0.0000
v -15.8500 0.6000 11.0000
v -9.8500 0.6000 11.0000
v -6.0000 0.6000 0.0000
v -15.8500 0.6000 11.0000
v -6.0000 0.6000 0.0000
v -12.0000 0.6000 0.0000
v -9.8500 0.6000 11.0000
v -9.8500 4.2000 11.0000
v -6.0000 4.2000 0.0000
v -9.8500 0.6000 11.0000
v -6.0000 4.2000 0.0000
v -6.0000 0.6000 0.0000
v -9.8500 4.2000 11.0000
v -15.8500 4.2000 11.0000
v -12.0000 4.2000 0.0000
v -9.8500 4.2000 11.0000
v -12.0000 4.2000 0.0000
v -6.0000 4.2000 0.0000
v -15.8500 4.2000 11.0000
v -15.8500 0.6000 11.0000
v -12.0000 0.6000 0.0000
v -15.8500 4.2000 11.0000
v -12.0000 0.6000 0.0000
v -12.0000 4.2000 0.0000
v -4.0000 1.9000 4.0000
v -4.0000 2.9000 4.0000
v 4.0000 2.9000 4.0000
v -4.0000 1.9000 4.0000
v 4.0000 2.9000 4.0000
v 4.0000 1.9000 4.0000
v -4.0000 1.9000 3.2000
v 4.0000 1.9000 3.2000
v 4.0000 2.9000 3.2000
v -4.0000 1.9000 3.2000
v 4.0000 2.9000 3.2000
v -4.0000 2.9000 3.2000
v -4.0000 1.9000 4.0000
v 4.0000 1.9000 4.0000
v 4.0000 1.9000 3.2000
v -4.0000 1.9000 4.0000
v 4.0000 1.9000 3.2000
v -4.0000 1.9000 3.2000
v 4.0000 1.9000 4.0000
v 4.0000 2.9000 4.0000
v 4.0000 2.9000 3.2000
v 4.0000 1.9000 4.0000
v 4.0000 2.9000 3.2000
v 4.0000 1.9000 3.2000
v 4.0000 2.9000 4.0000
v -4.0000 2.9000 4.0000
v -4.0000 2.9000 3.2000
v 4.0000 2.9000 4.0000
v -4.0000 2.9000 3.2000
v 4.0000 2.9000 3.2000
v -4.0000 2.9000 4.0000
v -4.0000 1.9000 4.0000
v -4.0000 1.9000 3.2000
v -4.0000 2.9000 4.0000
v -4.0000 1.9000 3.2000
v -4.0000 2.9000 3.2000
v 3.2000 1.9000 4.0000
v 3.2000 2.9000 4.0000
v 4.0000 2.9000 4.0000
v 3.2000 1.9000 4.0000
v 4.0000 2.9000 4.0000
v 4.0000 1.9000 4.0000
v 3.2000 1.9000 0.0000
v 4.0000 1.9000 0.0000
v 4.0000 2.9000 0.0000
v 3.2000 1.9000 0.0000
v 4.0000 2.9000 0.0000
v 3.2000 2.9000 0.0000
v 3.2000 1.9000 4.0000
v 4.0000 1.9000 4.0000
v 4.0000 1.9000 0.0000
v 3.2000 1.9000 4.0000
v 4.0000 1.9000 0.0000
v 3.2000 1.9000 0.0000
v 4.0000 1.9000 4.0000
v 4.0000 2.9000 4.0000
v 4.0000 2.9000 0.0000
v 4.0000 1.9000 4.0000
v 4.0000 2.9000 0.0000
v 4.0000 1.9000 0.0000
v 4.0000 2.9000 4.0000
v 3.2000 2.9000 4.0000
v 3.2000 2.9000 0.0000
v 4.0000 2.9000 4.0000
v 3.2000 2.9000 0.0000
v 4.0000 2.9000 0.0000
v 3.2000 2.9000 4.0000
v 3.2000 1.9000 4.0000
v 3.2000 1.9000 0.0000
v 3.2000 2.9000 4.0000
v 3.2000 1.9000 0.0000
v 3.2000 2.9000 0.0000
v -10.0000 0.4000 -0.5000
v -10.0000 4.4000 -0.5000
v -48.0000 4.4000 9.0000
v -10.0000 0.4000 -0.5000
v -48.0000 4.4000 9.0000
v -48.0000 0.4000 9.0000
v -10.0000 0.4000 -5.5000
v -48.0000 0.4000 -6.0000
v -48.0000 4.4000 -6.0000
v -10.0000 0.4000 -5.5000
v -48.0000 4.4000 -6.0000
v -10.0000 4.4000 -5.5000
v -10.0000 0.4000 -0.5000
v -48.0000 0.4000 9.0000
v -48.0000 0.4000 -6.0000
v -10.0000 0.4000 -0.5000
v -48.0000 0.4000 -6.0000
v -10.0000 0.4000 -5.5000
v -48.0000 0.4000 9.0000
v -48.0000 4.4000 9.0000
v -48.0000 4.4000 -6.0000
v -48.0000 0.4000 9.0000
v -48.0000 4.4000 -6.0000
v -48.0000 0.4000 -6.0000
v -48.0000 4.4000 9.0000
v -10.0000 4.4000 -0.5000
v -10.0000 4.4000 -5.5000
v -48.0000 4.4000 9.0000
v -10.0000 4.4000 -5.5000
v -48.0000 4.4000 -6.0000
v -10.0000 4.4000 -0.5000
v -10.0000 0.4000 -0.5000
v -10.0000 0.4000 -5.5000
v -10.0000 4.4000 -0.5000
v -10.0000 0.4000 -5.5000
v -10.0000 4.4000 -5.5000
v -49.0000 0.3000 9.0000
v -49.0000 4.5000 9.0000
v -48.0000 4.5000 9.0000
v -49.0000 0.3000 9.0000
v -48.0000 4.5000 9.0000
v -48.0000 0.3000 9.0000
v -49.0000 0.3000 -6.0000
v -48.0000 0.3000 -6.0000
v -48.0000 4.5000 -6.0000
v -49.0000 0.3000 -6.0000
v -48.0000 4.5000 -6.0000
v -49.0000 4.5000 -6.0000
v -49.0000 0.3000 9.0000
v -48.0000 0.3000 9.0000
v -48.0000 0.3000 -6.0000
v -49.0000 0.3000 9.0000
v -48.0000 0.3000 -6.0000
v -49.0000 0.3000 -6.0000
v -48.0000 0.3000 9.0000
v -48.0000 4.5000 9.0000
v -48.0000 4.5000 -6.0000
v -48.0000 0.3000 9.0000
v -48.0000 4.5000 -6.0000
v -48.0000 0.3000 -6.0000
v -48.0000 4.5000 9.0000
v -49.0000 4.5000 9.0000
v -49.0000 4.5000 -6.0000
v -48.0000 4.5000 9.0000
v -49.0000 4.5000 -6.0000
v -48.0000 4.5000 -6.0000
v -49.0000 4.5000 9.0000
v -49.0000 0.3000 9.0000
v -49.0000 0.3000 -6.0000
v -49.0000 4.5000 9.0000
v -49.0000 0.3000 -6.0000
v -49.0000 4.5000 -6.0000
vt 0.1250 0.8750
vt 0.3750 0.8750
vt 0.6250 0.8750
vt 0.8750 0.8750
vt 0.3750 0.6250
vt 0.1250 0.6250
vn 0.0000 0.0000 -1.0000
vn 0.0000 0.0000 -1.0000
vn 0.0000 0.0000 1.0000
vn 0.0000 0.0000 1.0000
vn 0.0000 1.0000 -0.0000
vn 0.0000 1.0000 -0.0000
vn -1.0000 0.0000 -0.0000
vn -1.0000 0.0000 -0.0000
vn 0.0000 -1.0000 -0.0000
vn 0.0000 -1.0000 -0.0000
vn 1.0000 0.0000 -0.0000
vn 1.0000 0.0000 0.0000
vn 0.0000 0.0000 -1.0000
vn 0.0000 0.0000 -1.0000
vn 0.0000 0.0000 1.0000
vn 0.0000 0.0000 1.0000
vn 0.0000 1.0000 -0.0000
vn 0.0000 1.0000 -0.0000
vn -1.0000 0.0000 -0.0000
vn -1.0000 0.0000 -0.0000
vn 0.0000 -1.0000 -0.0000
vn 0.0000 -1.0000 -0.0000
vn 1.0000 0.0000 -0.0000
vn 1.0000 0.0000 0.0000
vn 0.0000 0.0000 -1.0000
vn 0.0000 0.0000 -1.0000
vn 0.0000 0.0000 1.0000
vn 0.0000 0.0000 1.0000
vn 0.0000 1.0000 -0.0000
vn 0.0000 1.0000 -0.0000
vn -1.0000 0.0000 -0.0000
vn -1.0000 0.0000 -0.0000
vn 0.0000 -1.0000 -0.0000
vn 0.0000 -1.0000 -0.0000
vn 1.0000 0.0000 -0.0000
vn 1.0000 0.0000 0.0000
vn 0.0000 0.0000 -1.0000
vn 0.0000 0.0000 -1.0000
vn 0.0000 0.0000 1.0000
vn 0.0000 0.0000 1.0000
vn 0.0000 1.0000 -0.0000
vn 0.0000 1.0000 -0.0000
vn -1.0000 0.0000 -0.0000
vn -1.0000 0.0000 -0.0000
vn 0.0000 -1.0000 -0.0000
vn 0.0000 -1.0000 -0.0000
vn 1.0000 0.0000 -0.0000
vn 1.0000 0.0000 0.0000
vn 0.0000 0.0000 -1.0000
vn 0.0000 0.0000 -1.0000
vn 0.0000 0.0000 1.0000
vn 0.0000 0.0000 1.0000
vn 0.0000 1.0000 -0.0000
vn 0.0000 1.0000 -0.0000
vn -1.0000 0.0000 -0.0000
vn -1.0000 0.0000 -0.0000
vn 0.0000 -1.0000 -0.0000
vn 0.0000 -1.0000 -0.0000
vn 1.0000 0.0000 -0.0000
vn 1.0000 0.0000 0.0000
vn 0.0000 0.0000 -1.0000
vn 0.0000 0.0000 -1.0000
vn 0.0000 0.0000 1.0000
vn 0.0000 0.0000 1.0000
vn 0.0000 1.0000 -0.0000
vn 0.0000 1.0000 -0.0000
vn -1.0000 0.0000 -0.0000
vn -1.0000 0.0000 -0.0000
vn 0.0000 -1.0000 -0.0000
vn 0.0000 -1.0000 -0.0000
vn 1.0000 0.0000 -0.0000
vn 1.0000 0.0000 0.0000
vn 0.0000 0.0000 -1.0000
vn 0.0000 0.0000 -1.0000
vn 0.0000 0.0000 1.0000
vn 0.0000 0.0000 1.0000
vn 0.0000 1.0000 -0.0000
vn 0.0000 1.0000 -0.0000
vn -1.0000 0.0000 -0.0000
vn -1.0000 0.0000 -0.0000
vn 0.0000 -1.0000 -0.0000
vn 0.0000 -1.0000 -0.0000
vn 1.0000 0.0000 -0.0000
vn 1.0000 0.0000 0.0000
vn 0.0000 0.0000 -1.0000
vn 0.0000 0.0000 -1.0000
vn 0.0000 0.0000 1.0000
vn 0.0000 0.0000 1.0000
vn 0.0000 1.0000 -0.0000
vn 0.0000 1.0000 -0.0000
vn -1.0000 0.0000 -0.0000
vn -1.0000 0.0000 -0.0000
vn 0.0000 -1.0000 -0.0000
vn 0.0000 -1.0000 -0.0000
vn 1.0000 0.0000 -0.0000
vn 1.0000 0.0000 0.0000
vn 0.0000 0.0000 -1.0000
vn 0.0000 0.0000 -1.0000
vn 0.0000 0.0000 1.0000
vn 0.0000 0.0000 1.0000
vn 0.0000 1.0000 -0.0000
vn 0.0000 1.0000 -0.0000
vn -1.0000 0.0000 -0.0000
vn -1.0000 0.0000 -0.0000
vn 0.0000 -1.0000 -0.0000
vn 0.0000 -1.0000 -0.0000
vn 1.0000 0.0000 -0.0000
vn 1.0000 0.0000 0.0000
vn 0.0000 0.0000 -1.0000
vn 0.0000 0.0000 -1.0000
vn 0.0000 0.0000 1.0000
vn 0.0000 0.0000 1.0000
vn 0.0000 1.0000 -0.0000
vn 0.0000 1.0000 -0.0000
vn -1.0000 0.0000 -0.0000
vn -1.0000 0.0000 -0.0000
vn 0.0000 -1.0000 -0.0000
vn 0.0000 -1.0000 -0.0000
vn 1.0000 0.0000 -0.0000
vn 1.0000 0.0000 0.0000
vn 0.0000 0.0000 -1.0000
vn 0.0000 0.0000 -1.0000
vn 0.0000 0.0000 1.0000
vn 0.0000 0.0000 1.0000
vn 0.0000 1.0000 -0.0000
vn 0.0000 1.0000 -0.0000
vn -1.0000 0.0000 -0.0000
vn -1.0000 0.0000 -0.0000
vn 0.0000 -1.0000 -0.0000
vn 0.0000 -1.0000 -0.0000
vn 1.0000 0.0000 -0.0000
vn 1.0000 0.0000 0.0000
vn 0.0000 0.0000 -1.0000
vn 0.0000 0.0000 -1.0000
vn 0.0000 0.0000 1.0000
vn 0.0000 0.0000 1.0000
vn 0.0000 1.0000 -0.0000
vn 0.0000 1.0000 -0.0000
vn -1.0000 0.0000 -0.0000
vn -1.0000 0.0000 -0.0000
vn 0.0000 -1.0000 -0.0000
vn 0.0000 -1.0000 -0.0000
vn 1.0000 0.0000 -0.0000
vn 1.0000 0.0000 0.0000
vn 0.0000 0.0000 -1.0000
vn 0.0000 0.0000 -1.0000
vn 0.0000 0.0000 1.0000
vn 0.0000 0.0000 1.0000
vn 0.0000 1.0000 -0.0000
vn 0.0000 1.0000 -0.0000
vn -1.0000 0.0000 -0.0000
vn -1.0000 0.0000 -0.0000
vn 0.0000 -1.0000 -0.0000
vn 0.0000 -1.0000 -0.0000
vn 1.0000 0.0000 -0.0000
vn 1.0000 0.0000 0.0000
vn 0.0000 0.3827 -0.9239
vn -0.0000 0.3827 -0.9239
vn 0.0000 0.9239 -0.3827
vn -0.0000 0.9239 -0.3827
vn 0.0000 0.9239 0.3827
vn 0.0000 0.9239 0.3827
vn 0.0000 0.3827 0.9239
vn 0.0000 0.3827 0.9239
vn 0.0000 -0.3827 0.9239
vn 0.0000 -0.3827 0.9239
vn 0.0000 -0.9239 0.3827
vn 0.0000 -0.9239 0.3827
vn 0.0000 -0.9239 -0.3827
vn 0.0000 -0.9239 -0.3827
vn 0.0000 -0.3827 -0.9239
vn 0.0000 -0.3827 -0.9239
vn 1.0000 0.0000 -0.0000
vn -1.0000 0.0000 -0.0000
vn 1.0000 0.0000 -0.0000
vn -1.0000 0.0000 -0.0000
vn 1.0000 0.0000 -0.0000
vn -1.0000 0.0000 -0.0000
vn 1.0000 0.0000 -0.0000
vn -1.0000 0.0000 0.0000
vn 1.0000 0.0000 -0.0000
vn -1.0000 0.0000 -0.0000
vn 1.0000 0.0000 -0.0000
vn -1.0000 0.0000 -0.0000
vn 0.0000 0.0000 -1.0000
vn 0.0000 0.0000 -1.0000
vn 0.0000 0.0000 1.0000
vn 0.0000 0.0000 1.0000
vn 0.0000 1.0000 -0.0000
vn 0.0000 1.0000 -0.0000
vn -1.0000 0.0000 -0.0000
vn -1.0000 0.0000 -0.0000
vn 0.0000 -1.0000 -0.0000
vn 0.0000 -1.0000 -0.0000
vn 1.0000 0.0000 -0.0000
vn 1.0000 0.0000 0.0000
vn 0.0000 0.3827 -0.9239
vn -0.0000 0.3827 -0.9239
vn 0.0000 0.9239 -0.3827
vn -0.0000 0.9239 -0.3827
vn 0.0000 0.9239 0.3827
vn 0.0000 0.9239 0.3827
vn 0.0000 0.3827 0.9239
vn 0.0000 0.3827 0.9239
vn 0.0000 -0.3827 0.9239
vn 0.0000 -0.3827 0.9239
vn 0.0000 -0.9239 0.3827
vn 0.0000 -0.9239 0.3827
vn 0.0000 -0.9239 -0.3827
vn 0.0000 -0.9239 -0.3827
vn 0.0000 -0.3827 -0.9239
vn 0.0000 -0.3827 -0.9239
vn 1.0000 0.0000 -0.0000
vn -1.0000 0.0000 -0.0000
vn 1.0000 0.0000 -0.0000
vn -1.0000 0.0000 -0.0000
vn 1.0000 0.0000 -0.0000
vn -1.0000 0.0000 -0.0000
vn 1.0000 0.0000 -0.0000
vn -1.0000 0.0000 0.0000
vn 1.0000 0.0000 -0.0000
vn -1.0000 0.0000 -0.0000
vn 1.0000 0.0000 -0.0000
vn -1.0000 0.0000 -0.0000
vn 0.0000 0.0000 -1.0000
vn 0.0000 0.0000 -1.0000
vn 0.0000 0.0000 1.0000
vn 0.0000 0.0000 1.0000
vn 0.0000 1.0000 -0.0000
vn 0.0000 1.0000 0.0000
vn -0.9701 0.0000 0.2425
vn -0.9701 0.0000 0.2425
vn 0.0000 -1.0000 -0.0000
vn 0.0000 -1.0000 -0.0000
vn 0.9701 0.0000 -0.2425
vn 0.9701 0.0000 -0.2425
vn 0.0000 0.0000 -1.0000
vn 0.0000 0.0000 -1.0000
vn 0.0000 0.0000 1.0000
vn 0.0000 0.0000 1.0000
vn 0.0000 1.0000 -0.0000
vn 0.0000 1.0000 -0.0000
vn -0.9439 0.0000 -0.3304
vn -0.9439 0.0000 -0.3304
vn 0.0000 -1.0000 -0.0000
vn 0.0000 -1.0000 -0.0000
vn 0.9439 0.0000 0.3304
vn 0.9439 0.0000 0.3304
vn 0.0000 0.0000 -1.0000
vn 0.0000 0.0000 -1.0000
vn 0.0000 0.0000 1.0000
vn 0.0000 0.0000 1.0000
vn 0.0000 1.0000 -0.0000
vn 0.0000 1.0000 -0.0000
vn -1.0000 0.0000 -0.0000
vn -1.0000 0.0000 -0.0000
vn 0.0000 -1.0000 -0.0000
vn 0.0000 -1.0000 -0.0000
vn 1.0000 0.0000 -0.0000
vn 1.0000 0.0000 0.0000
vn 0.0000 0.0000 -1.0000
vn 0.0000 0.0000 -1.0000
vn 0.0000 0.0000 1.0000
vn 0.0000 0.0000 1.0000
vn 0.0000 1.0000 -0.0000
vn 0.0000 1.0000 -0.0000
vn -1.0000 0.0000 -0.0000
vn -1.0000 0.0000 -0.0000
vn 0.0000 -1.0000 -0.0000
vn 0.0000 -1.0000 -0.0000
vn 1.0000 0.0000 -0.0000
vn 1.0000 0.0000 0.0000
vn 0.2425 0.0000 0.9701
vn 0.2425 0.0000 0.9701
vn 0.0132 0.0000 -0.9999
vn 0.0132 -0.0000 -0.9999
vn -0.0000 -1.0000 -0.0000
vn 0.0000 -1.0000 -0.0000
vn -1.0000 0.0000 -0.0000
vn -1.0000 0.0000 -0.0000
vn 0.0000 1.0000 -0.0000
vn 0.0000 1.0000 -0.0000
vn 1.0000 0.0000 -0.0000
vn 1.0000 0.0000 0.0000
vn 0.0000 0.0000 -1.0000
vn 0.0000 0.0000 -1.0000
vn 0.0000 0.0000 1.0000
vn 0.0000 0.0000 1.0000
vn 0.0000 1.0000 -0.0000
vn 0.0000 1.0000 -0.0000
vn -1.0000 0.0000 -0.0000
vn -1.0000 0.0000 -0.0000
vn 0.0000 -1.0000 -0.0000
vn 0.0000 -1.0000 -0.0000
vn 1.0000 0.0000 -0.0000
vn 1.0000 0.0000 0.0000
f 1/1/1 2/1/1 3/1/1
f 4/1/2 5/1/2 6/1/2
f 7/1/3 8/1/3 9/1/3
f 10/1/4 11/1/4 12/1/4
f 13/1/5 14/1/5 15/1/5
f 16/1/6 17/1/6 18/1/6
f 19/1/7 20/1/7 21/1/7
f 22/1/8 23/1/8 24/1/8
f 25/1/9 26/1/9 27/1/9
f 28/1/10 29/1/10 30/1/10
f 31/1/11 32/1/11 33/1/11
f 34/1/12 35/1/12 36/1/12
f 37/1/13 38/1/13 39/1/13
f 40/1/14 41/1/14 42/1/14
f 43/1/15 44/1/15 45/1/15
f 46/1/16 47/1/16 48/1/16
f 49/1/17 50/1/17 51/1/17
f 52/1/18 53/1/18 54/1/18
f 55/1/19 56/1/19 57/1/19
f 58/1/20 59/1/20 60/1/20
f 61/1/21 62/1/21 63/1/21
f 64/1/22 65/1/22 66/1/22
f 67/1/23 68/1/23 69/1/23
f 70/1/24 71/1/24 72/1/24
f 73/1/25 74/1/25 75/1/25
f 76/1/26 77/1/26 78/1/26
f 79/1/27 80/1/27 81/1/27
f 82/1/28 83/1/28 84/1/28
f 85/1/29 86/1/29 87/1/29
f 88/1/30 89/1/30 90/1/30
f 91/1/31 92/1/31 93/1/31
f 94/1/32 95/1/32 96/1/32
f 97/1/33 98/1/33 99/1/33
f 100/1/34 101/1/34 102/1/34
f 103/1/35 104/1/35 105/1/35
f 106/1/36 107/1/36 108/1/36
f 109/1/37 110/1/37 111/1/37
f 112/1/38 113/1/38 114/1/38
f 115/1/39 116/1/39 117/1/39
f 118/1/40 119/1/40 120/1/40
f 121/1/41 122/1/41 123/1/41
f 124/1/42 125/1/42 126/1/42
f 127/1/43 128/1/43 129/1/43
f 130/1/44 131/1/44 132/1/44
f 133/1/45 134/1/45 135/1/45
f 136/1/46 137/1/46 138/1/46
f 139/1/47 140/1/47 141/1/47
f 142/1/48 143/1/48 144/1/48
f 145/2/49 146/2/49 147/2/49
f 148/2/50 149/2/50 150/2/50
f 151/2/51 152/2/51 153/2/51
f 154/2/52 155/2/52 156/2/52
f 157/2/53 158/2/53 159/2/53
f 160/2/54 161/2/54 162/2/54
f 163/2/55 164/2/55 165/2/55
f 166/2/56 167/2/56 168/2/56
f 169/2/57 170/2/57 171/2/57
f 172/2/58 173/2/58 174/2/58
f 175/2/59 176/2/59 177/2/59
f 178/2/60 179/2/60 180/2/60
f 181/2/61 182/2/61 183/2/61
f 184/2/62 185/2/62 186/2/62
f 187/2/63 188/2/63 189/2/63
f 190/2/64 191/2/64 192/2/64
f 193/2/65 194/2/65 195/2/65
f 196/2/66 197/2/66 198/2/66
f 199/2/67 200/2/67 201/2/67
f 202/2/68 203/2/68 204/2/68
f 205/2/69 206/2/69 207/2/69
f 208/2/70 209/2/70 210/2/70
f 211/2/71 212/2/71 213/2/71
f 214/2/72 215/2/72 216/2/72
f 217/3/73 218/3/73 219/3/73
f 220/3/74 221/3/74 222/3/74
f 223/3/75 224/3/75 225/3/75
f 226/3/76 227/3/76 228/3/76
f 229/3/77 230/3/77 231/3/77
f 232/3/78 233/3/78 234/3/78
f 235/3/79 236/3/79 237/3/79
f 238/3/80 239/3/80 240/3/80
f 241/3/81 242/3/81 243/3/81
f 244/3/82 245/3/82 246/3/82
f 247/3/83 248/3/83 249/3/83
f 250/3/84 251/3/84 252/3/84
f 253/4/85 254/4/85 255/4/85
f 256/4/86 257/4/86 258/4/86
f 259/4/87 260/4/87 261/4/87
f 262/4/88 263/4/88 264/4/88
f 265/4/89 266/4/89 267/4/89
f 268/4/90 269/4/90 270/4/90
f 271/4/91 272/4/91 273/4/91
f 274/4/92 275/4/92 276/4/92
f 277/4/93 278/4/93 279/4/93
f 280/4/94 281/4/94 282/4/94
f 283/4/95 284/4/95 285/4/95
f 286/4/96 287/4/96 288/4/96
f 289/4/97 290/4/97 291/4/97
f 292/4/98 293/4/98 294/4/98
f 295/4/99 296/4/99 297/4/99
f 298/4/100 299/4/100 300/4/100
f 301/4/101 302/4/101 303/4/101
f 304/4/102 305/4/102 306/4/102
f 307/4/103 308/4/103 309/4/103
f 310/4/104 311/4/104 312/4/104
f 313/4/105 314/4/105 315/4/105
f 316/4/106 317/4/106 318/4/106
f 319/4/107 320/4/107 321/4/107
f 322/4/108 323/4/108 324/4/108
f 325/4/109 326/4/109 327/4/109
f 328/4/110 329/4/110 330/4/110
f 331/4/111 332/4/111 333/4/111
f 334/4/112 335/4/112 336/4/112
f 337/4/113 338/4/113 339/4/113
f 340/4/114 341/4/114 342/4/114
f 343/4/115 344/4/115 345/4/115
f 346/4/116 347/4/116 348/4/116
f 349/4/117 350/4/117 351/4/117
f 352/4/118 353/4/118 354/4/118
f 355/4/119 356/4/119 357/4/119
f 358/4/120 359/4/120 360/4/120
f 361/4/121 362/4/121 363/4/121
f 364/4/122 365/4/122 366/4/122
f 367/4/123 368/4/123 369/4/123
f 370/4/124 371/4/124 372/4/124
f 373/4/125 374/4/125 375/4/125
f 376/4/126 377/4/126 378/4/126
f 379/4/127 380/4/127 381/4/127
f 382/4/128 383/4/128 384/4/128
f 385/4/129 386/4/129 387/4/129
f 388/4/130 389/4/130 390/4/130
f 391/4/131 392/4/131 393/4/131
f 394/4/132 395/4/132 396/4/132
f 397/4/133 398/4/133 399/4/133
f 400/4/134 401/4/134 402/4/134
f 403/4/135 404/4/135 405/4/135
f 406/4/136 407/4/136 408/4/136
f 409/4/137 410/4/137 411/4/137
f 412/4/138 413/4/138 414/4/138
f 415/4/139 416/4/139 417/4/139
f 418/4/140 419/4/140 420/4/140
f 421/4/141 422/4/141 423/4/141
f 424/4/142 425/4/142 426/4/142
f 427/4/143 428/4/143 429/4/143
f 430/4/144 431/4/144 432/4/144
f 433/4/145 434/4/145 435/4/145
f 436/4/146 437/4/146 438/4/146
f 439/4/147 440/4/147 441/4/147
f 442/4/148 443/4/148 444/4/148
f 445/4/149 446/4/149 447/4/149
f 448/4/150 449/4/150 450/4/150
f 451/4/151 452/4/151 453/4/151
f 454/4/152 455/4/152 456/4/152
f 457/4/153 458/4/153 459/4/153
f 460/4/154 461/4/154 462/4/154
f 463/4/155 464/4/155 465/4/155
f 466/4/156 467/4/156 468/4/156
f 469/1/157 470/1/157 471/1/157
f 472/1/158 473/1/158 474/1/158
f 475/1/159 476/1/159 477/1/159
f 478/1/160 479/1/160 480/1/160
f 481/1/161 482/1/161 483/1/161
f 484/1/162 485/1/162 486/1/162
f 487/1/163 488/1/163 489/1/163
f 490/1/164 491/1/164 492/1/164
f 493/1/165 494/1/165 495/1/165
f 496/1/166 497/1/166 498/1/166
f 499/1/167 500/1/167 501/1/167
f 502/1/168 503/1/168 504/1/168
f 505/1/169 506/1/169 507/1/169
f 508/1/170 509/1/170 510/1/170
f 511/1/171 512/1/171 513/1/171
f 514/1/172 515/1/172 516/1/172
f 517/1/173 518/1/173 519/1/173
f 520/1/174 521/1/174 522/1/174
f 523/1/175 524/1/175 525/1/175
f 526/1/176 527/1/176 528/1/176
f 529/1/177 530/1/177 531/1/177
f 532/1/178 533/1/178 534/1/178
f 535/1/179 536/1/179 537/1/179
f 538/1/180 539/1/180 540/1/180
f 541/1/181 542/1/181 543/1/181
f 544/1/182 545/1/182 546/1/182
f 547/1/183 548/1/183 549/1/183
f 550/1/184 551/1/184 552/1/184
f 553/1/185 554/1/185 555/1/185
f 556/1/186 557/1/186 558/1/186
f 559/1/187 560/1/187 561/1/187
f 562/1/188 563/1/188 564/1/188
f 565/1/189 566/1/189 567/1/189
f 568/1/190 569/1/190 570/1/190
f 571/1/191 572/1/191 573/1/191
f 574/1/192 575/1/192 576/1/192
f 577/1/193 578/1/193 579/1/193
f 580/1/194 581/1/194 582/1/194
f 583/1/195 584/1/195 585/1/195
f 586/1/196 587/1/196 588/1/196
f 589/2/197 590/2/197 591/2/197
f 592/2/198 593/2/198 594/2/198
f 595/2/199 596/2/199 597/2/199
f 598/2/200 599/2/200 600/2/200
f 601/2/201 602/2/201 603/2/201
f 604/2/202 605/2/202 606/2/202
f 607/2/203 608/2/203 609/2/203
f 610/2/204 611/2/204 612/2/204
f 613/2/205 614/2/205 615/2/205
f 616/2/206 617/2/206 618/2/206
f 619/2/207 620/2/207 621/2/207
f 622/2/208 623/2/208 624/2/208
f 625/2/209 626/2/209 627/2/209
f 628/2/210 629/2/210 630/2/210
f 631/2/211 632/2/211 633/2/211
f 634/2/212 635/2/212 636/2/212
f 637/4/213 638/4/213 639/4/213
f 640/4/214 641/4/214 642/4/214
f 643/4/215 644/4/215 645/4/215
f 646/4/216 647/4/216 648/4/216
f 649/4/217 650/4/217 651/4/217
f 652/4/218 653/4/218 654/4/218
f 655/4/219 656/4/219 657/4/219
f 658/4/220 659/4/220 660/4/220
f 661/4/221 662/4/221 663/4/221
f 664/4/222 665/4/222 666/4/222
f 667/4/223 668/4/223 669/4/223
f 670/4/224 671/4/224 672/4/224
f 673/1/225 674/1/225 675/1/225
f 676/1/226 677/1/226 678/1/226
f 679/1/227 680/1/227 681/1/227
f 682/1/228 683/1/228 684/1/228
f 685/1/229 686/1/229 687/1/229
f 688/1/230 689/1/230 690/1/230
f 691/1/231 692/1/231 693/1/231
f 694/1/232 695/1/232 696/1/232
f 697/1/233 698/1/233 699/1/233
f 700/1/234 701/1/234 702/1/234
f 703/1/235 704/1/235 705/1/235
f 706/1/236 707/1/236 708/1/236
f 709/5/237 710/5/237 711/5/237
f 712/5/238 713/5/238 714/5/238
f 715/5/239 716/5/239 717/5/239
f 718/5/240 719/5/240 720/5/240
f 721/5/241 722/5/241 723/5/241
f 724/5/242 725/5/242 726/5/242
f 727/5/243 728/5/243 729/5/243
f 730/5/244 731/5/244 732/5/244
f 733/5/245 734/5/245 735/5/245
f 736/5/246 737/5/246 738/5/246
f 739/5/247 740/5/247 741/5/247
f 742/5/248 743/5/248 744/5/248
f 745/1/249 746/1/249 747/1/249
f 748/1/250 749/1/250 750/1/250
f 751/1/251 752/1/251 753/1/251
f 754/1/252 755/1/252 756/1/252
f 757/1/253 758/1/253 759/1/253
f 760/1/254 761/1/254 762/1/254
f 763/1/255 764/1/255 765/1/255
f 766/1/256 767/1/256 768/1/256
f 769/1/257 770/1/257 771/1/257
f 772/1/258 773/1/258 774/1/258
f 775/1/259 776/1/259 777/1/259
f 778/1/260 779/1/260 780/1/260
f 781/1/261 782/1/261 783/1/261
f 784/1/262 785/1/262 786/1/262
f 787/1/263 788/1/263 789/1/263
f 790/1/264 791/1/264 792/1/264
f 793/1/265 794/1/265 795/1/265
f 796/1/266 797/1/266 798/1/266
f 799/1/267 800/1/267 801/1/267
f 802/1/268 803/1/268 804/1/268
f 805/1/269 806/1/269 807/1/269
f 808/1/270 809/1/270 810/1/270
f 811/1/271 812/1/271 813/1/271
f 814/1/272 815/1/272 816/1/272
f 817/3/273 818/3/273 819/3/273
f 820/3/274 821/3/274 822/3/274
f 823/3/275 824/3/275 825/3/275
f 826/3/276 827/3/276 828/3/276
f 829/3/277 830/3/277 831/3/277
f 832/3/278 833/3/278 834/3/278
f 835/3/279 836/3/279 837/3/279
f 838/3/280 839/3/280 840/3/280
f 841/3/281 842/3/281 843/3/281
f 844/3/282 845/3/282 846/3/282
f 847/3/283 848/3/283 849/3/283
f 850/3/284 851/3/284 852/3/284
f 853/6/285 854/6/285 855/6/285
f 856/6/286 857/6/286 858/6/286
f 859/6/287 860/6/287 861/6/287
f 862/6/288 863/6/288 864/6/288
f 865/6/289 866/6/289 867/6/289
f 868/6/290 869/6/290 870/6/290
f 871/6/291 872/6/291 873/6/291
f 874/6/292 875/6/292 876/6/292
f 877/6/293 878/6/293 879/6/293
f 880/6/294 881/6/294 882/6/294
f 883/6/295 884/6/295 885/6/295
f 886/6/296 887/6/296 888/6/296
