# RF2 key_grille_world: generated by scripts/mapkit/weapon_models.py. Centimetres, Y up.
o key_grille_world
usemtl weapons_palette.png
v -11.7716 0.0000 -0.6000
v -11.7716 0.0000 3.4284
v -9.4000 0.0000 3.4284
v -11.7716 0.0000 -0.6000
v -9.4000 0.0000 3.4284
v -9.4000 0.0000 -0.6000
v -11.7716 1.2000 -0.6000
v -9.4000 1.2000 -0.6000
v -9.4000 1.2000 3.4284
v -11.7716 1.2000 -0.6000
v -9.4000 1.2000 3.4284
v -11.7716 1.2000 3.4284
v -11.7716 0.0000 -0.6000
v -9.4000 0.0000 -0.6000
v -9.4000 1.2000 -0.6000
v -11.7716 0.0000 -0.6000
v -9.4000 1.2000 -0.6000
v -11.7716 1.2000 -0.6000
v -9.4000 0.0000 -0.6000
v -9.4000 0.0000 3.4284
v -9.4000 1.2000 3.4284
v -9.4000 0.0000 -0.6000
v -9.4000 1.2000 3.4284
v -9.4000 1.2000 -0.6000
v -9.4000 0.0000 3.4284
v -11.7716 0.0000 3.4284
v -11.7716 1.2000 3.4284
v -9.4000 0.0000 3.4284
v -11.7716 1.2000 3.4284
v -9.4000 1.2000 3.4284
v -11.7716 0.0000 3.4284
v -11.7716 0.0000 -0.6000
v -11.7716 1.2000 -0.6000
v -11.7716 0.0000 3.4284
v -11.7716 1.2000 -0.6000
v -11.7716 1.2000 3.4284
v -14.6000 0.0000 2.2284
v -14.6000 0.0000 4.6000
v -10.5716 0.0000 4.6000
v -14.6000 0.0000 2.2284
v -10.5716 0.0000 4.6000
v -10.5716 0.0000 2.2284
v -14.6000 1.2000 2.2284
v -10.5716 1.2000 2.2284
v -10.5716 1.2000 4.6000
v -14.6000 1.2000 2.2284
v -10.5716 1.2000 4.6000
v -14.6000 1.2000 4.6000
v -14.6000 0.0000 2.2284
v -10.5716 0.0000 2.2284
v -10.5716 1.2000 2.2284
v -14.6000 0.0000 2.2284
v -10.5716 1.2000 2.2284
v -14.6000 1.2000 2.2284
v -10.5716 0.0000 2.2284
v -10.5716 0.0000 4.6000
v -10.5716 1.2000 4.6000
v -10.5716 0.0000 2.2284
v -10.5716 1.2000 4.6000
v -10.5716 1.2000 2.2284
v -10.5716 0.0000 4.6000
v -14.6000 0.0000 4.6000
v -14.6000 1.2000 4.6000
v -10.5716 0.0000 4.6000
v -14.6000 1.2000 4.6000
v -10.5716 1.2000 4.6000
v -14.6000 0.0000 4.6000
v -14.6000 0.0000 2.2284
v -14.6000 1.2000 2.2284
v -14.6000 0.0000 4.6000
v -14.6000 1.2000 2.2284
v -14.6000 1.2000 4.6000
v -17.4284 0.0000 2.2284
v -17.4284 0.0000 4.6000
v -13.4000 0.0000 4.6000
v -17.4284 0.0000 2.2284
v -13.4000 0.0000 4.6000
v -13.4000 0.0000 2.2284
v -17.4284 1.2000 2.2284
v -13.4000 1.2000 2.2284
v -13.4000 1.2000 4.6000
v -17.4284 1.2000 2.2284
v -13.4000 1.2000 4.6000
v -17.4284 1.2000 4.6000
v -17.4284 0.0000 2.2284
v -13.4000 0.0000 2.2284
v -13.4000 1.2000 2.2284
v -17.4284 0.0000 2.2284
v -13.4000 1.2000 2.2284
v -17.4284 1.2000 2.2284
v -13.4000 0.0000 2.2284
v -13.4000 0.0000 4.6000
v -13.4000 1.2000 4.6000
v -13.4000 0.0000 2.2284
v -13.4000 1.2000 4.6000
v -13.4000 1.2000 2.2284
v -13.4000 0.0000 4.6000
v -17.4284 0.0000 4.6000
v -17.4284 1.2000 4.6000
v -13.4000 0.0000 4.6000
v -17.4284 1.2000 4.6000
v -13.4000 1.2000 4.6000
v -17.4284 0.0000 4.6000
v -17.4284 0.0000 2.2284
v -17.4284 1.2000 2.2284
v -17.4284 0.0000 4.6000
v -17.4284 1.2000 2.2284
v -17.4284 1.2000 4.6000
v -18.6000 0.0000 -0.6000
v -18.6000 0.0000 3.4284
v -16.2284 0.0000 3.4284
v -18.6000 0.0000 -0.6000
v -16.2284 0.0000 3.4284
v -16.2284 0.0000 -0.6000
v -18.6000 1.2000 -0.6000
v -16.2284 1.2000 -0.6000
v -16.2284 1.2000 3.4284
v -18.6000 1.2000 -0.6000
v -16.2284 1.2000 3.4284
v -18.6000 1.2000 3.4284
v -18.6000 0.0000 -0.6000
v -16.2284 0.0000 -0.6000
v -16.2284 1.2000 -0.6000
v -18.6000 0.0000 -0.6000
v -16.2284 1.2000 -0.6000
v -18.6000 1.2000 -0.6000
v -16.2284 0.0000 -0.6000
v -16.2284 0.0000 3.4284
v -16.2284 1.2000 3.4284
v -16.2284 0.0000 -0.6000
v -16.2284 1.2000 3.4284
v -16.2284 1.2000 -0.6000
v -16.2284 0.0000 3.4284
v -18.6000 0.0000 3.4284
v -18.6000 1.2000 3.4284
v -16.2284 0.0000 3.4284
v -18.6000 1.2000 3.4284
v -16.2284 1.2000 3.4284
v -18.6000 0.0000 3.4284
v -18.6000 0.0000 -0.6000
v -18.6000 1.2000 -0.6000
v -18.6000 0.0000 3.4284
v -18.6000 1.2000 -0.6000
v -18.6000 1.2000 3.4284
v -18.6000 0.0000 -3.4284
v -18.6000 0.0000 0.6000
v -16.2284 0.0000 0.6000
v -18.6000 0.0000 -3.4284
v -16.2284 0.0000 0.6000
v -16.2284 0.0000 -3.4284
v -18.6000 1.2000 -3.4284
v -16.2284 1.2000 -3.4284
v -16.2284 1.2000 0.6000
v -18.6000 1.2000 -3.4284
v -16.2284 1.2000 0.6000
v -18.6000 1.2000 0.6000
v -18.6000 0.0000 -3.4284
v -16.2284 0.0000 -3.4284
v -16.2284 1.2000 -3.4284
v -18.6000 0.0000 -3.4284
v -16.2284 1.2000 -3.4284
v -18.6000 1.2000 -3.4284
v -16.2284 0.0000 -3.4284
v -16.2284 0.0000 0.6000
v -16.2284 1.2000 0.6000
v -16.2284 0.0000 -3.4284
v -16.2284 1.2000 0.6000
v -16.2284 1.2000 -3.4284
v -16.2284 0.0000 0.6000
v -18.6000 0.0000 0.6000
v -18.6000 1.2000 0.6000
v -16.2284 0.0000 0.6000
v -18.6000 1.2000 0.6000
v -16.2284 1.2000 0.6000
v -18.6000 0.0000 0.6000
v -18.6000 0.0000 -3.4284
v -18.6000 1.2000 -3.4284
v -18.6000 0.0000 0.6000
v -18.6000 1.2000 -3.4284
v -18.6000 1.2000 0.6000
v -17.4284 0.0000 -4.6000
v -17.4284 0.0000 -2.2284
v -13.4000 0.0000 -2.2284
v -17.4284 0.0000 -4.6000
v -13.4000 0.0000 -2.2284
v -13.4000 0.0000 -4.6000
v -17.4284 1.2000 -4.6000
v -13.4000 1.2000 -4.6000
v -13.4000 1.2000 -2.2284
v -17.4284 1.2000 -4.6000
v -13.4000 1.2000 -2.2284
v -17.4284 1.2000 -2.2284
v -17.4284 0.0000 -4.6000
v -13.4000 0.0000 -4.6000
v -13.4000 1.2000 -4.6000
v -17.4284 0.0000 -4.6000
v -13.4000 1.2000 -4.6000
v -17.4284 1.2000 -4.6000
v -13.4000 0.0000 -4.6000
v -13.4000 0.0000 -2.2284
v -13.4000 1.2000 -2.2284
v -13.4000 0.0000 -4.6000
v -13.4000 1.2000 -2.2284
v -13.4000 1.2000 -4.6000
v -13.4000 0.0000 -2.2284
v -17.4284 0.0000 -2.2284
v -17.4284 1.2000 -2.2284
v -13.4000 0.0000 -2.2284
v -17.4284 1.2000 -2.2284
v -13.4000 1.2000 -2.2284
v -17.4284 0.0000 -2.2284
v -17.4284 0.0000 -4.6000
v -17.4284 1.2000 -4.6000
v -17.4284 0.0000 -2.2284
v -17.4284 1.2000 -4.6000
v -17.4284 1.2000 -2.2284
v -14.6000 0.0000 -4.6000
v -14.6000 0.0000 -2.2284
v -10.5716 0.0000 -2.2284
v -14.6000 0.0000 -4.6000
v -10.5716 0.0000 -2.2284
v -10.5716 0.0000 -4.6000
v -14.6000 1.2000 -4.6000
v -10.5716 1.2000 -4.6000
v -10.5716 1.2000 -2.2284
v -14.6000 1.2000 -4.6000
v -10.5716 1.2000 -2.2284
v -14.6000 1.2000 -2.2284
v -14.6000 0.0000 -4.6000
v -10.5716 0.0000 -4.6000
v -10.5716 1.2000 -4.6000
v -14.6000 0.0000 -4.6000
v -10.5716 1.2000 -4.6000
v -14.6000 1.2000 -4.6000
v -10.5716 0.0000 -4.6000
v -10.5716 0.0000 -2.2284
v -10.5716 1.2000 -2.2284
v -10.5716 0.0000 -4.6000
v -10.5716 1.2000 -2.2284
v -10.5716 1.2000 -4.6000
v -10.5716 0.0000 -2.2284
v -14.6000 0.0000 -2.2284
v -14.6000 1.2000 -2.2284
v -10.5716 0.0000 -2.2284
v -14.6000 1.2000 -2.2284
v -10.5716 1.2000 -2.2284
v -14.6000 0.0000 -2.2284
v -14.6000 0.0000 -4.6000
v -14.6000 1.2000 -4.6000
v -14.6000 0.0000 -2.2284
v -14.6000 1.2000 -4.6000
v -14.6000 1.2000 -2.2284
v -11.7716 0.0000 -3.4284
v -11.7716 0.0000 0.6000
v -9.4000 0.0000 0.6000
v -11.7716 0.0000 -3.4284
v -9.4000 0.0000 0.6000
v -9.4000 0.0000 -3.4284
v -11.7716 1.2000 -3.4284
v -9.4000 1.2000 -3.4284
v -9.4000 1.2000 0.6000
v -11.7716 1.2000 -3.4284
v -9.4000 1.2000 0.6000
v -11.7716 1.2000 0.6000
v -11.7716 0.0000 -3.4284
v -9.4000 0.0000 -3.4284
v -9.4000 1.2000 -3.4284
v -11.7716 0.0000 -3.4284
v -9.4000 1.2000 -3.4284
v -11.7716 1.2000 -3.4284
v -9.4000 0.0000 -3.4284
v -9.4000 0.0000 0.6000
v -9.4000 1.2000 0.6000
v -9.4000 0.0000 -3.4284
v -9.4000 1.2000 0.6000
v -9.4000 1.2000 -3.4284
v -9.4000 0.0000 0.6000
v -11.7716 0.0000 0.6000
v -11.7716 1.2000 0.6000
v -9.4000 0.0000 0.6000
v -11.7716 1.2000 0.6000
v -9.4000 1.2000 0.6000
v -11.7716 0.0000 0.6000
v -11.7716 0.0000 -3.4284
v -11.7716 1.2000 -3.4284
v -11.7716 0.0000 0.6000
v -11.7716 1.2000 -3.4284
v -11.7716 1.2000 0.6000
v -10.0000 0.0000 -0.8000
v -10.0000 0.0000 0.8000
v 8.0000 0.0000 0.8000
v -10.0000 0.0000 -0.8000
v 8.0000 0.0000 0.8000
v 8.0000 0.0000 -0.8000
v -10.0000 1.4000 -0.8000
v 8.0000 1.4000 -0.8000
v 8.0000 1.4000 0.8000
v -10.0000 1.4000 -0.8000
v 8.0000 1.4000 0.8000
v -10.0000 1.4000 0.8000
v -10.0000 0.0000 -0.8000
v 8.0000 0.0000 -0.8000
v 8.0000 1.4000 -0.8000
v -10.0000 0.0000 -0.8000
v 8.0000 1.4000 -0.8000
v -10.0000 1.4000 -0.8000
v 8.0000 0.0000 -0.8000
v 8.0000 0.0000 0.8000
v 8.0000 1.4000 0.8000
v 8.0000 0.0000 -0.8000
v 8.0000 1.4000 0.8000
v 8.0000 1.4000 -0.8000
v 8.0000 0.0000 0.8000
v -10.0000 0.0000 0.8000
v -10.0000 1.4000 0.8000
v 8.0000 0.0000 0.8000
v -10.0000 1.4000 0.8000
v 8.0000 1.4000 0.8000
v -10.0000 0.0000 0.8000
v -10.0000 0.0000 -0.8000
v -10.0000 1.4000 -0.8000
v -10.0000 0.0000 0.8000
v -10.0000 1.4000 -0.8000
v -10.0000 1.4000 0.8000
v 4.0000 0.0000 0.8000
v 4.0000 0.0000 4.0000
v 8.0000 0.0000 4.0000
v 4.0000 0.0000 0.8000
v 8.0000 0.0000 4.0000
v 8.0000 0.0000 0.8000
v 4.0000 1.4000 0.8000
v 8.0000 1.4000 0.8000
v 8.0000 1.4000 4.0000
v 4.0000 1.4000 0.8000
v 8.0000 1.4000 4.0000
v 4.0000 1.4000 4.0000
v 4.0000 0.0000 0.8000
v 8.0000 0.0000 0.8000
v 8.0000 1.4000 0.8000
v 4.0000 0.0000 0.8000
v 8.0000 1.4000 0.8000
v 4.0000 1.4000 0.8000
v 8.0000 0.0000 0.8000
v 8.0000 0.0000 4.0000
v 8.0000 1.4000 4.0000
v 8.0000 0.0000 0.8000
v 8.0000 1.4000 4.0000
v 8.0000 1.4000 0.8000
v 8.0000 0.0000 4.0000
v 4.0000 0.0000 4.0000
v 4.0000 1.4000 4.0000
v 8.0000 0.0000 4.0000
v 4.0000 1.4000 4.0000
v 8.0000 1.4000 4.0000
v 4.0000 0.0000 4.0000
v 4.0000 0.0000 0.8000
v 4.0000 1.4000 0.8000
v 4.0000 0.0000 4.0000
v 4.0000 1.4000 0.8000
v 4.0000 1.4000 4.0000
v -24.0000 0.0000 -4.0000
v -24.0000 0.0000 4.0000
v -18.0000 0.0000 4.0000
v -24.0000 0.0000 -4.0000
v -18.0000 0.0000 4.0000
v -18.0000 0.0000 -4.0000
v -24.0000 0.8000 -4.0000
v -18.0000 0.8000 -4.0000
v -18.0000 0.8000 4.0000
v -24.0000 0.8000 -4.0000
v -18.0000 0.8000 4.0000
v -24.0000 0.8000 4.0000
v -24.0000 0.0000 -4.0000
v -18.0000 0.0000 -4.0000
v -18.0000 0.8000 -4.0000
v -24.0000 0.0000 -4.0000
v -18.0000 0.8000 -4.0000
v -24.0000 0.8000 -4.0000
v -18.0000 0.0000 -4.0000
v -18.0000 0.0000 4.0000
v -18.0000 0.8000 4.0000
v -18.0000 0.0000 -4.0000
v -18.0000 0.8000 4.0000
v -18.0000 0.8000 -4.0000
v -18.0000 0.0000 4.0000
v -24.0000 0.0000 4.0000
v -24.0000 0.8000 4.0000
v -18.0000 0.0000 4.0000
v -24.0000 0.8000 4.0000
v -18.0000 0.8000 4.0000
v -24.0000 0.0000 4.0000
v -24.0000 0.0000 -4.0000
v -24.0000 0.8000 -4.0000
v -24.0000 0.0000 4.0000
v -24.0000 0.8000 -4.0000
v -24.0000 0.8000 4.0000
vt 0.6250 0.3750
vt 0.8750 0.3750
vn 0.0000 1.0000 0.0000
vn 0.0000 1.0000 0.0000
vn 0.0000 -1.0000 0.0000
vn 0.0000 -1.0000 0.0000
vn 0.0000 0.0000 1.0000
vn 0.0000 0.0000 1.0000
vn -1.0000 0.0000 0.0000
vn -1.0000 0.0000 0.0000
vn 0.0000 0.0000 -1.0000
vn 0.0000 0.0000 -1.0000
vn 1.0000 0.0000 0.0000
vn 1.0000 -0.0000 0.0000
vn 0.0000 1.0000 0.0000
vn 0.0000 1.0000 0.0000
vn 0.0000 -1.0000 0.0000
vn 0.0000 -1.0000 0.0000
vn 0.0000 0.0000 1.0000
vn 0.0000 0.0000 1.0000
vn -1.0000 0.0000 0.0000
vn -1.0000 0.0000 0.0000
vn 0.0000 0.0000 -1.0000
vn 0.0000 0.0000 -1.0000
vn 1.0000 0.0000 0.0000
vn 1.0000 -0.0000 0.0000
vn 0.0000 1.0000 0.0000
vn 0.0000 1.0000 0.0000
vn 0.0000 -1.0000 0.0000
vn 0.0000 -1.0000 0.0000
vn 0.0000 0.0000 1.0000
vn 0.0000 0.0000 1.0000
vn -1.0000 0.0000 0.0000
vn -1.0000 0.0000 0.0000
vn 0.0000 0.0000 -1.0000
vn 0.0000 0.0000 -1.0000
vn 1.0000 0.0000 0.0000
vn 1.0000 -0.0000 0.0000
vn 0.0000 1.0000 0.0000
vn 0.0000 1.0000 0.0000
vn 0.0000 -1.0000 0.0000
vn 0.0000 -1.0000 0.0000
vn 0.0000 0.0000 1.0000
vn 0.0000 0.0000 1.0000
vn -1.0000 0.0000 0.0000
vn -1.0000 0.0000 0.0000
vn 0.0000 0.0000 -1.0000
vn 0.0000 0.0000 -1.0000
vn 1.0000 0.0000 0.0000
vn 1.0000 -0.0000 0.0000
vn 0.0000 1.0000 0.0000
vn 0.0000 1.0000 0.0000
vn 0.0000 -1.0000 0.0000
vn 0.0000 -1.0000 0.0000
vn 0.0000 0.0000 1.0000
vn 0.0000 0.0000 1.0000
vn -1.0000 0.0000 0.0000
vn -1.0000 0.0000 0.0000
vn 0.0000 0.0000 -1.0000
vn 0.0000 0.0000 -1.0000
vn 1.0000 0.0000 0.0000
vn 1.0000 -0.0000 0.0000
vn 0.0000 1.0000 0.0000
vn 0.0000 1.0000 0.0000
vn 0.0000 -1.0000 0.0000
vn 0.0000 -1.0000 0.0000
vn 0.0000 0.0000 1.0000
vn 0.0000 0.0000 1.0000
vn -1.0000 0.0000 0.0000
vn -1.0000 0.0000 0.0000
vn 0.0000 0.0000 -1.0000
vn 0.0000 0.0000 -1.0000
vn 1.0000 0.0000 0.0000
vn 1.0000 -0.0000 0.0000
vn 0.0000 1.0000 0.0000
vn 0.0000 1.0000 0.0000
vn 0.0000 -1.0000 0.0000
vn 0.0000 -1.0000 0.0000
vn 0.0000 0.0000 1.0000
vn 0.0000 0.0000 1.0000
vn -1.0000 0.0000 0.0000
vn -1.0000 0.0000 0.0000
vn 0.0000 0.0000 -1.0000
vn 0.0000 0.0000 -1.0000
vn 1.0000 0.0000 0.0000
vn 1.0000 -0.0000 0.0000
vn 0.0000 1.0000 0.0000
vn 0.0000 1.0000 0.0000
vn 0.0000 -1.0000 0.0000
vn 0.0000 -1.0000 0.0000
vn 0.0000 0.0000 1.0000
vn 0.0000 0.0000 1.0000
vn -1.0000 0.0000 0.0000
vn -1.0000 0.0000 0.0000
vn 0.0000 0.0000 -1.0000
vn 0.0000 0.0000 -1.0000
vn 1.0000 0.0000 0.0000
vn 1.0000 -0.0000 0.0000
vn 0.0000 1.0000 0.0000
vn 0.0000 1.0000 0.0000
vn 0.0000 -1.0000 0.0000
vn 0.0000 -1.0000 0.0000
vn 0.0000 0.0000 1.0000
vn 0.0000 0.0000 1.0000
vn -1.0000 0.0000 0.0000
vn -1.0000 0.0000 0.0000
vn 0.0000 0.0000 -1.0000
vn 0.0000 0.0000 -1.0000
vn 1.0000 0.0000 0.0000
vn 1.0000 -0.0000 0.0000
vn 0.0000 1.0000 0.0000
vn 0.0000 1.0000 0.0000
vn 0.0000 -1.0000 0.0000
vn 0.0000 -1.0000 0.0000
vn 0.0000 0.0000 1.0000
vn 0.0000 0.0000 1.0000
vn -1.0000 0.0000 0.0000
vn -1.0000 0.0000 0.0000
vn 0.0000 0.0000 -1.0000
vn 0.0000 0.0000 -1.0000
vn 1.0000 0.0000 0.0000
vn 1.0000 -0.0000 0.0000
vn 0.0000 1.0000 0.0000
vn 0.0000 1.0000 0.0000
vn 0.0000 -1.0000 0.0000
vn 0.0000 -1.0000 0.0000
vn 0.0000 0.0000 1.0000
vn 0.0000 0.0000 1.0000
vn -1.0000 0.0000 0.0000
vn -1.0000 0.0000 0.0000
vn 0.0000 0.0000 -1.0000
vn 0.0000 0.0000 -1.0000
vn 1.0000 0.0000 0.0000
vn 1.0000 -0.0000 0.0000
f 1/1/1 2/1/1 3/1/1
f 4/1/2 5/1/2 6/1/2
f 7/1/3 8/1/3 9/1/3
f 10/1/4 11/1/4 12/1/4
f 13/1/5 14/1/5 15/1/5
f 16/1/6 17/1/6 18/1/6
f 19/1/7 20/1/7 21/1/7
f 22/1/8 23/1/8 24/1/8
f 25/1/9 26/1/9 27/1/9
f 28/1/10 29/1/10 30/1/10
f 31/1/11 32/1/11 33/1/11
f 34/1/12 35/1/12 36/1/12
f 37/1/13 38/1/13 39/1/13
f 40/1/14 41/1/14 42/1/14
f 43/1/15 44/1/15 45/1/15
f 46/1/16 47/1/16 48/1/16
f 49/1/17 50/1/17 51/1/17
f 52/1/18 53/1/18 54/1/18
f 55/1/19 56/1/19 57/1/19
f 58/1/20 59/1/20 60/1/20
f 61/1/21 62/1/21 63/1/21
f 64/1/22 65/1/22 66/1/22
f 67/1/23 68/1/23 69/1/23
f 70/1/24 71/1/24 72/1/24
f 73/1/25 74/1/25 75/1/25
f 76/1/26 77/1/26 78/1/26
f 79/1/27 80/1/27 81/1/27
f 82/1/28 83/1/28 84/1/28
f 85/1/29 86/1/29 87/1/29
f 88/1/30 89/1/30 90/1/30
f 91/1/31 92/1/31 93/1/31
f 94/1/32 95/1/32 96/1/32
f 97/1/33 98/1/33 99/1/33
f 100/1/34 101/1/34 102/1/34
f 103/1/35 104/1/35 105/1/35
f 106/1/36 107/1/36 108/1/36
f 109/1/37 110/1/37 111/1/37
f 112/1/38 113/1/38 114/1/38
f 115/1/39 116/1/39 117/1/39
f 118/1/40 119/1/40 120/1/40
f 121/1/41 122/1/41 123/1/41
f 124/1/42 125/1/42 126/1/42
f 127/1/43 128/1/43 129/1/43
f 130/1/44 131/1/44 132/1/44
f 133/1/45 134/1/45 135/1/45
f 136/1/46 137/1/46 138/1/46
f 139/1/47 140/1/47 141/1/47
f 142/1/48 143/1/48 144/1/48
f 145/1/49 146/1/49 147/1/49
f 148/1/50 149/1/50 150/1/50
f 151/1/51 152/1/51 153/1/51
f 154/1/52 155/1/52 156/1/52
f 157/1/53 158/1/53 159/1/53
f 160/1/54 161/1/54 162/1/54
f 163/1/55 164/1/55 165/1/55
f 166/1/56 167/1/56 168/1/56
f 169/1/57 170/1/57 171/1/57
f 172/1/58 173/1/58 174/1/58
f 175/1/59 176/1/59 177/1/59
f 178/1/60 179/1/60 180/1/60
f 181/1/61 182/1/61 183/1/61
f 184/1/62 185/1/62 186/1/62
f 187/1/63 188/1/63 189/1/63
f 190/1/64 191/1/64 192/1/64
f 193/1/65 194/1/65 195/1/65
f 196/1/66 197/1/66 198/1/66
f 199/1/67 200/1/67 201/1/67
f 202/1/68 203/1/68 204/1/68
f 205/1/69 206/1/69 207/1/69
f 208/1/70 209/1/70 210/1/70
f 211/1/71 212/1/71 213/1/71
f 214/1/72 215/1/72 216/1/72
f 217/1/73 218/1/73 219/1/73
f 220/1/74 221/1/74 222/1/74
f 223/1/75 224/1/75 225/1/75
f 226/1/76 227/1/76 228/1/76
f 229/1/77 230/1/77 231/1/77
f 232/1/78 233/1/78 234/1/78
f 235/1/79 236/1/79 237/1/79
f 238/1/80 239/1/80 240/1/80
f 241/1/81 242/1/81 243/1/81
f 244/1/82 245/1/82 246/1/82
f 247/1/83 248/1/83 249/1/83
f 250/1/84 251/1/84 252/1/84
f 253/1/85 254/1/85 255/1/85
f 256/1/86 257/1/86 258/1/86
f 259/1/87 260/1/87 261/1/87
f 262/1/88 263/1/88 264/1/88
f 265/1/89 266/1/89 267/1/89
f 268/1/90 269/1/90 270/1/90
f 271/1/91 272/1/91 273/1/91
f 274/1/92 275/1/92 276/1/92
f 277/1/93 278/1/93 279/1/93
f 280/1/94 281/1/94 282/1/94
f 283/1/95 284/1/95 285/1/95
f 286/1/96 287/1/96 288/1/96
f 289/1/97 290/1/97 291/1/97
f 292/1/98 293/1/98 294/1/98
f 295/1/99 296/1/99 297/1/99
f 298/1/100 299/1/100 300/1/100
f 301/1/101 302/1/101 303/1/101
f 304/1/102 305/1/102 306/1/102
f 307/1/103 308/1/103 309/1/103
f 310/1/104 311/1/104 312/1/104
f 313/1/105 314/1/105 315/1/105
f 316/1/106 317/1/106 318/1/106
f 319/1/107 320/1/107 321/1/107
f 322/1/108 323/1/108 324/1/108
f 325/1/109 326/1/109 327/1/109
f 328/1/110 329/1/110 330/1/110
f 331/1/111 332/1/111 333/1/111
f 334/1/112 335/1/112 336/1/112
f 337/1/113 338/1/113 339/1/113
f 340/1/114 341/1/114 342/1/114
f 343/1/115 344/1/115 345/1/115
f 346/1/116 347/1/116 348/1/116
f 349/1/117 350/1/117 351/1/117
f 352/1/118 353/1/118 354/1/118
f 355/1/119 356/1/119 357/1/119
f 358/1/120 359/1/120 360/1/120
f 361/2/121 362/2/121 363/2/121
f 364/2/122 365/2/122 366/2/122
f 367/2/123 368/2/123 369/2/123
f 370/2/124 371/2/124 372/2/124
f 373/2/125 374/2/125 375/2/125
f 376/2/126 377/2/126 378/2/126
f 379/2/127 380/2/127 381/2/127
f 382/2/128 383/2/128 384/2/128
f 385/2/129 386/2/129 387/2/129
f 388/2/130 389/2/130 390/2/130
f 391/2/131 392/2/131 393/2/131
f 394/2/132 395/2/132 396/2/132
