# RF2 mag_world: generated by scripts/mapkit/weapon_models.py. Centimetres, Y up.
o mag_world
usemtl weapons_palette.png
v -15.0000 0.0000 -5.0000
v -15.0000 0.0000 5.0000
v 15.0000 0.0000 5.0000
v -15.0000 0.0000 -5.0000
v 15.0000 0.0000 5.0000
v 15.0000 0.0000 -5.0000
v -15.0000 3.6000 -5.0000
v 15.0000 3.6000 -5.0000
v 15.0000 3.6000 5.0000
v -15.0000 3.6000 -5.0000
v 15.0000 3.6000 5.0000
v -15.0000 3.6000 5.0000
v -15.0000 0.0000 -5.0000
v 15.0000 0.0000 -5.0000
v 15.0000 3.6000 -5.0000
v -15.0000 0.0000 -5.0000
v 15.0000 3.6000 -5.0000
v -15.0000 3.6000 -5.0000
v 15.0000 0.0000 -5.0000
v 15.0000 0.0000 5.0000
v 15.0000 3.6000 5.0000
v 15.0000 0.0000 -5.0000
v 15.0000 3.6000 5.0000
v 15.0000 3.6000 -5.0000
v 15.0000 0.0000 5.0000
v -15.0000 0.0000 5.0000
v -15.0000 3.6000 5.0000
v 15.0000 0.0000 5.0000
v -15.0000 3.6000 5.0000
v 15.0000 3.6000 5.0000
v -15.0000 0.0000 5.0000
v -15.0000 0.0000 -5.0000
v -15.0000 3.6000 -5.0000
v -15.0000 0.0000 5.0000
v -15.0000 3.6000 -5.0000
v -15.0000 3.6000 5.0000
v -12.0000 3.6000 -4.2000
v -12.0000 3.6000 4.2000
v -10.8000 3.6000 4.2000
v -12.0000 3.6000 -4.2000
v -10.8000 3.6000 4.2000
v -10.8000 3.6000 -4.2000
v -12.0000 4.0000 -4.2000
v -10.8000 4.0000 -4.2000
v -10.8000 4.0000 4.2000
v -12.0000 4.0000 -4.2000
v -10.8000 4.0000 4.2000
v -12.0000 4.0000 4.2000
v -12.0000 3.6000 -4.2000
v -10.8000 3.6000 -4.2000
v -10.8000 4.0000 -4.2000
v -12.0000 3.6000 -4.2000
v -10.8000 4.0000 -4.2000
v -12.0000 4.0000 -4.2000
v -10.8000 3.6000 -4.2000
v -10.8000 3.6000 4.2000
v -10.8000 4.0000 4.2000
v -10.8000 3.6000 -4.2000
v -10.8000 4.0000 4.2000
v -10.8000 4.0000 -4.2000
v -10.8000 3.6000 4.2000
v -12.0000 3.6000 4.2000
v -12.0000 4.0000 4.2000
v -10.8000 3.6000 4.2000
v -12.0000 4.0000 4.2000
v -10.8000 4.0000 4.2000
v -12.0000 3.6000 4.2000
v -12.0000 3.6000 -4.2000
v -12.0000 4.0000 -4.2000
v -12.0000 3.6000 4.2000
v -12.0000 4.0000 -4.2000
v -12.0000 4.0000 4.2000
v -6.0000 3.6000 -4.2000
v -6.0000 3.6000 4.2000
v -4.8000 3.6000 4.2000
v -6.0000 3.6000 -4.2000
v -4.8000 3.6000 4.2000
v -4.8000 3.6000 -4.2000
v -6.0000 4.0000 -4.2000
v -4.8000 4.0000 -4.2000
v -4.8000 4.0000 4.2000
v -6.0000 4.0000 -4.2000
v -4.8000 4.0000 4.2000
v -6.0000 4.0000 4.2000
v -6.0000 3.6000 -4.2000
v -4.8000 3.6000 -4.2000
v -4.8000 4.0000 -4.2000
v -6.0000 3.6000 -4.2000
v -4.8000 4.0000 -4.2000
v -6.0000 4.0000 -4.2000
v -4.8000 3.6000 -4.2000
v -4.8000 3.6000 4.2000
v -4.8000 4.0000 4.2000
v -4.8000 3.6000 -4.2000
v -4.8000 4.0000 4.2000
v -4.8000 4.0000 -4.2000
v -4.8000 3.6000 4.2000
v -6.0000 3.6000 4.2000
v -6.0000 4.0000 4.2000
v -4.8000 3.6000 4.2000
v -6.0000 4.0000 4.2000
v -4.8000 4.0000 4.2000
v -6.0000 3.6000 4.2000
v -6.0000 3.6000 -4.2000
v -6.0000 4.0000 -4.2000
v -6.0000 3.6000 4.2000
v -6.0000 4.0000 -4.2000
v -6.0000 4.0000 4.2000
v 0.0000 3.6000 -4.2000
v 0.0000 3.6000 4.2000
v 1.2000 3.6000 4.2000
v 0.0000 3.6000 -4.2000
v 1.2000 3.6000 4.2000
v 1.2000 3.6000 -4.2000
v 0.0000 4.0000 -4.2000
v 1.2000 4.0000 -4.2000
v 1.2000 4.0000 4.2000
v 0.0000 4.0000 -4.2000
v 1.2000 4.0000 4.2000
v 0.0000 4.0000 4.2000
v 0.0000 3.6000 -4.2000
v 1.2000 3.6000 -4.2000
v 1.2000 4.0000 -4.2000
v 0.0000 3.6000 -4.2000
v 1.2000 4.0000 -4.2000
v 0.0000 4.0000 -4.2000
v 1.2000 3.6000 -4.2000
v 1.2000 3.6000 4.2000
v 1.2000 4.0000 4.2000
v 1.2000 3.6000 -4.2000
v 1.2000 4.0000 4.2000
v 1.2000 4.0000 -4.2000
v 1.2000 3.6000 4.2000
v 0.0000 3.6000 4.2000
v 0.0000 4.0000 4.2000
v 1.2000 3.6000 4.2000
v 0.0000 4.0000 4.2000
v 1.2000 4.0000 4.2000
v 0.0000 3.6000 4.2000
v 0.0000 3.6000 -4.2000
v 0.0000 4.0000 -4.2000
v 0.0000 3.6000 4.2000
v 0.0000 4.0000 -4.2000
v 0.0000 4.0000 4.2000
v 6.0000 3.6000 -4.2000
v 6.0000 3.6000 4.2000
v 7.2000 3.6000 4.2000
v 6.0000 3.6000 -4.2000
v 7.2000 3.6000 4.2000
v 7.2000 3.6000 -4.2000
v 6.0000 4.0000 -4.2000
v 7.2000 4.0000 -4.2000
v 7.2000 4.0000 4.2000
v 6.0000 4.0000 -4.2000
v 7.2000 4.0000 4.2000
v 6.0000 4.0000 4.2000
v 6.0000 3.6000 -4.2000
v 7.2000 3.6000 -4.2000
v 7.2000 4.0000 -4.2000
v 6.0000 3.6000 -4.2000
v 7.2000 4.0000 -4.2000
v 6.0000 4.0000 -4.2000
v 7.2000 3.6000 -4.2000
v 7.2000 3.6000 4.2000
v 7.2000 4.0000 4.2000
v 7.2000 3.6000 -4.2000
v 7.2000 4.0000 4.2000
v 7.2000 4.0000 -4.2000
v 7.2000 3.6000 4.2000
v 6.0000 3.6000 4.2000
v 6.0000 4.0000 4.2000
v 7.2000 3.6000 4.2000
v 6.0000 4.0000 4.2000
v 7.2000 4.0000 4.2000
v 6.0000 3.6000 4.2000
v 6.0000 3.6000 -4.2000
v 6.0000 4.0000 -4.2000
v 6.0000 3.6000 4.2000
v 6.0000 4.0000 -4.2000
v 6.0000 4.0000 4.2000
v 12.0000 3.6000 -4.2000
v 12.0000 3.6000 4.2000
v 13.2000 3.6000 4.2000
v 12.0000 3.6000 -4.2000
v 13.2000 3.6000 4.2000
v 13.2000 3.6000 -4.2000
v 12.0000 4.0000 -4.2000
v 13.2000 4.0000 -4.2000
v 13.2000 4.0000 4.2000
v 12.0000 4.0000 -4.2000
v 13.2000 4.0000 4.2000
v 12.0000 4.0000 4.2000
v 12.0000 3.6000 -4.2000
v 13.2000 3.6000 -4.2000
v 13.2000 4.0000 -4.2000
v 12.0000 3.6000 -4.2000
v 13.2000 4.0000 -4.2000
v 12.0000 4.0000 -4.2000
v 13.2000 3.6000 -4.2000
v 13.2000 3.6000 4.2000
v 13.2000 4.0000 4.2000
v 13.2000 3.6000 -4.2000
v 13.2000 4.0000 4.2000
v 13.2000 4.0000 -4.2000
v 13.2000 3.6000 4.2000
v 12.0000 3.6000 4.2000
v 12.0000 4.0000 4.2000
v 13.2000 3.6000 4.2000
v 12.0000 4.0000 4.2000
v 13.2000 4.0000 4.2000
v 12.0000 3.6000 4.2000
v 12.0000 3.6000 -4.2000
v 12.0000 4.0000 -4.2000
v 12.0000 3.6000 4.2000
v 12.0000 4.0000 -4.2000
v 12.0000 4.0000 4.2000
v 15.0000 0.0000 -5.2000
v 15.0000 0.0000 5.2000
v 17.0000 0.0000 5.2000
v 15.0000 0.0000 -5.2000
v 17.0000 0.0000 5.2000
v 17.0000 0.0000 -5.2000
v 15.0000 3.2000 -5.2000
v 17.0000 3.2000 -5.2000
v 17.0000 3.2000 5.2000
v 15.0000 3.2000 -5.2000
v 17.0000 3.2000 5.2000
v 15.0000 3.2000 5.2000
v 15.0000 0.0000 -5.2000
v 17.0000 0.0000 -5.2000
v 17.0000 3.2000 -5.2000
v 15.0000 0.0000 -5.2000
v 17.0000 3.2000 -5.2000
v 15.0000 3.2000 -5.2000
v 17.0000 0.0000 -5.2000
v 17.0000 0.0000 5.2000
v 17.0000 3.2000 5.2000
v 17.0000 0.0000 -5.2000
v 17.0000 3.2000 5.2000
v 17.0000 3.2000 -5.2000
v 17.0000 0.0000 5.2000
v 15.0000 0.0000 5.2000
v 15.0000 3.2000 5.2000
v 17.0000 0.0000 5.2000
v 15.0000 3.2000 5.2000
v 17.0000 3.2000 5.2000
v 15.0000 0.0000 5.2000
v 15.0000 0.0000 -5.2000
v 15.0000 3.2000 -5.2000
v 15.0000 0.0000 5.2000
v 15.0000 3.2000 -5.2000
v 15.0000 3.2000 5.2000
v -17.0000 0.6000 -3.0000
v -17.0000 0.6000 3.0000
v -15.0000 0.6000 3.0000
v -17.0000 0.6000 -3.0000
v -15.0000 0.6000 3.0000
v -15.0000 0.6000 -3.0000
v -17.0000 3.0000 -3.0000
v -15.0000 3.0000 -3.0000
v -15.0000 3.0000 3.0000
v -17.0000 3.0000 -3.0000
v -15.0000 3.0000 3.0000
v -17.0000 3.0000 3.0000
v -17.0000 0.6000 -3.0000
v -15.0000 0.6000 -3.0000
v -15.0000 3.0000 -3.0000
v -17.0000 0.6000 -3.0000
v -15.0000 3.0000 -3.0000
v -17.0000 3.0000 -3.0000
v -15.0000 0.6000 -3.0000
v -15.0000 0.6000 3.0000
v -15.0000 3.0000 3.0000
v -15.0000 0.6000 -3.0000
v -15.0000 3.0000 3.0000
v -15.0000 3.0000 -3.0000
v -15.0000 0.6000 3.0000
v -17.0000 0.6000 3.0000
v -17.0000 3.0000 3.0000
v -15.0000 0.6000 3.0000
v -17.0000 3.0000 3.0000
v -15.0000 3.0000 3.0000
v -17.0000 0.6000 3.0000
v -17.0000 0.6000 -3.0000
v -17.0000 3.0000 -3.0000
v -17.0000 0.6000 3.0000
v -17.0000 3.0000 -3.0000
v -17.0000 3.0000 3.0000
vt 0.1250 0.8750
vt 0.3750 0.8750
vt 0.8750 0.3750
vn 0.0000 1.0000 0.0000
vn 0.0000 1.0000 0.0000
vn 0.0000 -1.0000 0.0000
vn 0.0000 -1.0000 0.0000
vn 0.0000 0.0000 1.0000
vn 0.0000 0.0000 1.0000
vn -1.0000 0.0000 0.0000
vn -1.0000 0.0000 0.0000
vn 0.0000 0.0000 -1.0000
vn 0.0000 0.0000 -1.0000
vn 1.0000 0.0000 0.0000
vn 1.0000 -0.0000 0.0000
vn 0.0000 1.0000 0.0000
vn 0.0000 1.0000 0.0000
vn 0.0000 -1.0000 0.0000
vn 0.0000 -1.0000 0.0000
vn 0.0000 0.0000 1.0000
vn 0.0000 0.0000 1.0000
vn -1.0000 0.0000 0.0000
vn -1.0000 0.0000 0.0000
vn 0.0000 0.0000 -1.0000
vn 0.0000 0.0000 -1.0000
vn 1.0000 0.0000 0.0000
vn 1.0000 -0.0000 0.0000
vn 0.0000 1.0000 0.0000
vn 0.0000 1.0000 0.0000
vn 0.0000 -1.0000 0.0000
vn 0.0000 -1.0000 0.0000
vn 0.0000 0.0000 1.0000
vn 0.0000 0.0000 1.0000
vn -1.0000 0.0000 0.0000
vn -1.0000 0.0000 0.0000
vn 0.0000 0.0000 -1.0000
vn 0.0000 0.0000 -1.0000
vn 1.0000 0.0000 0.0000
vn 1.0000 -0.0000 0.0000
vn 0.0000 1.0000 0.0000
vn 0.0000 1.0000 0.0000
vn 0.0000 -1.0000 0.0000
vn 0.0000 -1.0000 0.0000
vn 0.0000 0.0000 1.0000
vn 0.0000 0.0000 1.0000
vn -1.0000 0.0000 0.0000
vn -1.0000 0.0000 0.0000
vn 0.0000 0.0000 -1.0000
vn 0.0000 0.0000 -1.0000
vn 1.0000 0.0000 0.0000
vn 1.0000 -0.0000 0.0000
vn 0.0000 1.0000 0.0000
vn 0.0000 1.0000 0.0000
vn 0.0000 -1.0000 0.0000
vn 0.0000 -1.0000 0.0000
vn 0.0000 0.0000 1.0000
vn 0.0000 0.0000 1.0000
vn -1.0000 0.0000 0.0000
vn -1.0000 0.0000 0.0000
vn 0.0000 0.0000 -1.0000
vn 0.0000 0.0000 -1.0000
vn 1.0000 0.0000 0.0000
vn 1.0000 -0.0000 0.0000
vn 0.0000 1.0000 0.0000
vn 0.0000 1.0000 0.0000
vn 0.0000 -1.0000 0.0000
vn 0.0000 -1.0000 0.0000
vn 0.0000 0.0000 1.0000
vn 0.0000 0.0000 1.0000
vn -1.0000 0.0000 0.0000
vn -1.0000 0.0000 0.0000
vn 0.0000 0.0000 -1.0000
vn 0.0000 0.0000 -1.0000
vn 1.0000 0.0000 0.0000
vn 1.0000 -0.0000 0.0000
vn 0.0000 1.0000 0.0000
vn 0.0000 1.0000 0.0000
vn 0.0000 -1.0000 0.0000
vn 0.0000 -1.0000 0.0000
vn 0.0000 0.0000 1.0000
vn 0.0000 0.0000 1.0000
vn -1.0000 0.0000 0.0000
vn -1.0000 0.0000 0.0000
vn 0.0000 0.0000 -1.0000
vn 0.0000 0.0000 -1.0000
vn 1.0000 0.0000 0.0000
vn 1.0000 -0.0000 0.0000
vn 0.0000 1.0000 0.0000
vn 0.0000 1.0000 0.0000
vn 0.0000 -1.0000 0.0000
vn 0.0000 -1.0000 0.0000
vn 0.0000 0.0000 1.0000
vn 0.0000 0.0000 1.0000
vn -1.0000 0.0000 0.0000
vn -1.0000 0.0000 0.0000
vn 0.0000 0.0000 -1.0000
vn 0.0000 0.0000 -1.0000
vn 1.0000 0.0000 0.0000
vn 1.0000 -0.0000 0.0000
f 1/1/1 2/1/1 3/1/1
f 4/1/2 5/1/2 6/1/2
f 7/1/3 8/1/3 9/1/3
f 10/1/4 11/1/4 12/1/4
f 13/1/5 14/1/5 15/1/5
f 16/1/6 17/1/6 18/1/6
f 19/1/7 20/1/7 21/1/7
f 22/1/8 23/1/8 24/1/8
f 25/1/9 26/1/9 27/1/9
f 28/1/10 29/1/10 30/1/10
f 31/1/11 32/1/11 33/1/11
f 34/1/12 35/1/12 36/1/12
f 37/2/13 38/2/13 39/2/13
f 40/2/14 41/2/14 42/2/14
f 43/2/15 44/2/15 45/2/15
f 46/2/16 47/2/16 48/2/16
f 49/2/17 50/2/17 51/2/17
f 52/2/18 53/2/18 54/2/18
f 55/2/19 56/2/19 57/2/19
f 58/2/20 59/2/20 60/2/20
f 61/2/21 62/2/21 63/2/21
f 64/2/22 65/2/22 66/2/22
f 67/2/23 68/2/23 69/2/23
f 70/2/24 71/2/24 72/2/24
f 73/2/25 74/2/25 75/2/25
f 76/2/26 77/2/26 78/2/26
f 79/2/27 80/2/27 81/2/27
f 82/2/28 83/2/28 84/2/28
f 85/2/29 86/2/29 87/2/29
f 88/2/30 89/2/30 90/2/30
f 91/2/31 92/2/31 93/2/31
f 94/2/32 95/2/32 96/2/32
f 97/2/33 98/2/33 99/2/33
f 100/2/34 101/2/34 102/2/34
f 103/2/35 104/2/35 105/2/35
f 106/2/36 107/2/36 108/2/36
f 109/2/37 110/2/37 111/2/37
f 112/2/38 113/2/38 114/2/38
f 115/2/39 116/2/39 117/2/39
f 118/2/40 119/2/40 120/2/40
f 121/2/41 122/2/41 123/2/41
f 124/2/42 125/2/42 126/2/42
f 127/2/43 128/2/43 129/2/43
f 130/2/44 131/2/44 132/2/44
f 133/2/45 134/2/45 135/2/45
f 136/2/46 137/2/46 138/2/46
f 139/2/47 140/2/47 141/2/47
f 142/2/48 143/2/48 144/2/48
f 145/2/49 146/2/49 147/2/49
f 148/2/50 149/2/50 150/2/50
f 151/2/51 152/2/51 153/2/51
f 154/2/52 155/2/52 156/2/52
f 157/2/53 158/2/53 159/2/53
f 160/2/54 161/2/54 162/2/54
f 163/2/55 164/2/55 165/2/55
f 166/2/56 167/2/56 168/2/56
f 169/2/57 170/2/57 171/2/57
f 172/2/58 173/2/58 174/2/58
f 175/2/59 176/2/59 177/2/59
f 178/2/60 179/2/60 180/2/60
f 181/2/61 182/2/61 183/2/61
f 184/2/62 185/2/62 186/2/62
f 187/2/63 188/2/63 189/2/63
f 190/2/64 191/2/64 192/2/64
f 193/2/65 194/2/65 195/2/65
f 196/2/66 197/2/66 198/2/66
f 199/2/67 200/2/67 201/2/67
f 202/2/68 203/2/68 204/2/68
f 205/2/69 206/2/69 207/2/69
f 208/2/70 209/2/70 210/2/70
f 211/2/71 212/2/71 213/2/71
f 214/2/72 215/2/72 216/2/72
f 217/2/73 218/2/73 219/2/73
f 220/2/74 221/2/74 222/2/74
f 223/2/75 224/2/75 225/2/75
f 226/2/76 227/2/76 228/2/76
f 229/2/77 230/2/77 231/2/77
f 232/2/78 233/2/78 234/2/78
f 235/2/79 236/2/79 237/2/79
f 238/2/80 239/2/80 240/2/80
f 241/2/81 242/2/81 243/2/81
f 244/2/82 245/2/82 246/2/82
f 247/2/83 248/2/83 249/2/83
f 250/2/84 251/2/84 252/2/84
f 253/3/85 254/3/85 255/3/85
f 256/3/86 257/3/86 258/3/86
f 259/3/87 260/3/87 261/3/87
f 262/3/88 263/3/88 264/3/88
f 265/3/89 266/3/89 267/3/89
f 268/3/90 269/3/90 270/3/90
f 271/3/91 272/3/91 273/3/91
f 274/3/92 275/3/92 276/3/92
f 277/3/93 278/3/93 279/3/93
f 280/3/94 281/3/94 282/3/94
f 283/3/95 284/3/95 285/3/95
f 286/3/96 287/3/96 288/3/96
